<svg width="24" height="24" viewBox="0 0 24 24" fill="none" xmlns="http://www.w3.org/2000/svg">
<g clip-path="url(#clip0_930_87)">
<path fill-rule="evenodd" clip-rule="evenodd" d="M23.292 4.45906C23.5008 4.5424 23.6799 4.68641 23.8061 4.87249C23.9323 5.05858 23.9998 5.27822 24 5.50306V18.4961C23.9998 18.7209 23.9323 18.9405 23.8061 19.1266C23.6799 19.3127 23.5008 19.4567 23.292 19.5401L12.417 23.8901C12.1488 23.9973 11.8497 23.9973 11.5815 23.8901L0.7065 19.5401C0.497953 19.4565 0.319208 19.3124 0.193291 19.1263C0.0673734 18.9402 5.22899e-05 18.7207 0 18.4961L0 5.50306C5.22899e-05 5.27839 0.0673734 5.05888 0.193291 4.87281C0.319208 4.68674 0.497953 4.54264 0.7065 4.45906L11.1645 0.275559L11.1705 0.274059L11.5815 0.109058C11.8501 0.00140758 12.1499 0.00140758 12.4185 0.109058L12.8295 0.274059L12.8355 0.275559L23.292 4.45906ZM21.231 5.24956L12 8.94256L2.769 5.24956L1.5 5.75806V6.35806L11.25 10.2581V22.1411L12 22.4411L12.75 22.1411V10.2596L22.5 6.35956V5.75956L21.231 5.24956Z" fill="#1C74E9"/>
</g>
<defs>
<clipPath id="clip0_930_87">
<rect width="24" height="24" fill="white"/>
</clipPath>
</defs>
</svg>
