<svg width="20" height="25" viewBox="0 0 20 25" fill="none" xmlns="http://www.w3.org/2000/svg">
<path fill-rule="evenodd" clip-rule="evenodd" d="M13.6391 9.73931C14.3239 9.73931 14.879 10.2843 14.879 10.9567V18.2609C14.879 18.9333 14.3239 19.4783 13.6391 19.4783C12.9543 19.4783 12.3992 18.9333 12.3992 18.2609V10.9567C12.3992 10.2843 12.9543 9.73931 13.6391 9.73931ZM9.91933 10.9567C10.6041 10.9567 11.1593 11.5017 11.1593 12.1741V18.2609C11.1593 18.9333 10.6041 19.4783 9.91933 19.4783C9.23453 19.4783 8.67942 18.9333 8.67942 18.2609V12.1741C8.67942 11.5017 9.23453 10.9567 9.91933 10.9567ZM7.4395 14.6088C7.4395 13.9365 6.88438 13.3914 6.19958 13.3914C5.5148 13.3914 4.95967 13.9365 4.95967 14.6088V18.2609C4.95967 18.9333 5.5148 19.4783 6.19958 19.4783C6.88437 19.4783 7.4395 18.9333 7.4395 18.2609V14.6088ZM10.517 0.000167847C11.3586 -0.00109822 12.1056 -0.00221818 12.7954 0.27835C13.4853 0.558919 14.0128 1.0783 14.607 1.66353C15.7844 2.82309 16.9637 3.98091 18.1447 5.13692C18.7407 5.72035 19.2698 6.23815 19.5555 6.9155C19.8413 7.59286 19.8402 8.32625 19.8388 9.15262C19.8341 12.2155 19.8387 15.2782 19.8387 18.3412C19.8388 19.4204 19.8388 20.3502 19.7369 21.0947C19.6275 21.8927 19.3811 22.6577 18.7491 23.2782C18.1173 23.8986 17.3381 24.1406 16.5254 24.2479C15.7669 24.3479 14.8199 24.3479 13.7207 24.3478H6.118C5.01881 24.3479 4.07174 24.3479 3.31332 24.2479C2.50054 24.1406 1.72144 23.8986 1.08949 23.2782C0.457557 22.6577 0.211136 21.8927 0.101862 21.0947C-0.000108585 20.3502 -5.89615e-05 19.4204 3.03427e-06 18.3412L1.54503e-05 6.08723C1.54503e-05 6.06042 3.03427e-06 6.0337 3.03427e-06 6.00709C-5.89615e-05 4.9279 -0.000108585 3.99805 0.101862 3.25342C0.211136 2.45542 0.457557 1.69048 1.0895 1.07003C1.72144 0.449574 2.50054 0.207633 3.31332 0.100346C4.07173 0.000228777 5.0188 0.000277497 6.11797 0.000338366C7.58432 0.000423582 9.05065 0.00238347 10.517 0.000167847Z" fill="#1C74E9"/>
</svg>
