<svg width="25" height="24" viewBox="0 0 25 24" fill="none" xmlns="http://www.w3.org/2000/svg">
<path fill-rule="evenodd" clip-rule="evenodd" d="M14.6003 0.922511C13.2165 -0.307504 11.1313 -0.307504 9.74752 0.922511L0.40862 9.22379C-0.0939062 9.67045 -0.139169 10.44 0.307516 10.9425C0.754201 11.4449 1.52368 11.4902 2.02619 11.0435L2.4348 10.6804V17.5181C2.43473 18.5973 2.43469 19.5272 2.53479 20.2719C2.64208 21.0698 2.88404 21.8349 3.50449 22.4552C4.12495 23.0757 4.88989 23.3176 5.68792 23.425C6.43255 23.5251 7.3624 23.525 8.4416 23.525H15.9062C16.9854 23.525 17.9152 23.5251 18.6599 23.425C19.4579 23.3176 20.2229 23.0757 20.8433 22.4552C21.4638 21.8349 21.7057 21.0698 21.8131 20.2719C21.9131 19.5272 21.9131 18.5973 21.913 17.5182V10.6804L22.3216 11.0435C22.8241 11.4902 23.5936 11.4449 24.0403 10.9425C24.4869 10.44 24.4418 9.67045 23.9392 9.22379L14.6003 0.922511ZM12.1739 16.2206C11.5015 16.2206 10.9565 16.7656 10.9565 17.438V19.8728C10.9565 20.5452 10.4115 21.0902 9.73912 21.0902C9.06678 21.0902 8.52173 20.5452 8.52173 19.8728V17.438C8.52173 15.4209 10.1568 13.7858 12.1739 13.7858C14.191 13.7858 15.8261 15.4209 15.8261 17.438V19.8728C15.8261 20.5452 15.281 21.0902 14.6087 21.0902C13.9363 21.0902 13.3913 20.5452 13.3913 19.8728V17.438C13.3913 16.7656 12.8463 16.2206 12.1739 16.2206Z" fill="#1C74E9"/>
</svg>
