<svg width="64" height="64" viewBox="0 0 64 64" fill="none" xmlns="http://www.w3.org/2000/svg">
<rect width="64" height="64" rx="32" fill="url(#paint0_linear_978_71)"/>
<g clip-path="url(#clip0_978_71)">
<mask id="mask0_978_71" style="mask-type:luminance" maskUnits="userSpaceOnUse" x="20" y="20" width="24" height="24">
<path d="M44 20H20V44H44V20Z" fill="white"/>
</mask>
<g mask="url(#mask0_978_71)">
<path fill-rule="evenodd" clip-rule="evenodd" d="M43.292 24.4591C43.5008 24.5424 43.6799 24.6864 43.8061 24.8725C43.9323 25.0586 43.9998 25.2782 44 25.5031V38.4961C43.9998 38.7209 43.9323 38.9405 43.8061 39.1266C43.6799 39.3127 43.5008 39.4567 43.292 39.5401L32.417 43.8901C32.1488 43.9973 31.8497 43.9973 31.5815 43.8901L20.7065 39.5401C20.498 39.4565 20.3192 39.3124 20.1933 39.1263C20.0674 38.9402 20.0001 38.7207 20 38.4961V25.5031C20.0001 25.2784 20.0674 25.0589 20.1933 24.8728C20.3192 24.6867 20.498 24.5426 20.7065 24.4591L31.1645 20.2756L31.1705 20.2741L31.5815 20.1091C31.8501 20.0014 32.1499 20.0014 32.4185 20.1091L32.8295 20.2741L32.8355 20.2756L43.292 24.4591ZM41.231 25.2496L32 28.9426L22.769 25.2496L21.5 25.7581V26.3581L31.25 30.2581V42.1411L32 42.4411L32.75 42.1411V30.2596L42.5 26.3596V25.7596L41.231 25.2496Z" fill="white"/>
</g>
</g>
<defs>
<linearGradient id="paint0_linear_978_71" x1="32" y1="0" x2="32" y2="64" gradientUnits="userSpaceOnUse">
<stop stop-color="#0CE0FF"/>
<stop offset="1" stop-color="#015FC9"/>
</linearGradient>
<clipPath id="clip0_978_71">
<rect width="24" height="24" fill="white" transform="translate(20 20)"/>
</clipPath>
</defs>
</svg>
