<svg width="64" height="64" viewBox="0 0 64 64" fill="none" xmlns="http://www.w3.org/2000/svg">
<rect width="64" height="64" rx="32" fill="url(#paint0_linear_978_72)"/>
<g clip-path="url(#clip0_978_72)">
<mask id="mask0_978_72" style="mask-type:luminance" maskUnits="userSpaceOnUse" x="20" y="20" width="24" height="24">
<path d="M44 20H20V44H44V20Z" fill="white"/>
</mask>
<g mask="url(#mask0_978_72)">
<path d="M20 22.25V39.5C20 39.8978 20.158 40.2794 20.4393 40.5607C20.7206 40.842 21.1022 41 21.5 41V22.25C21.5 22.0511 21.579 21.8603 21.7197 21.7197C21.8603 21.579 22.0511 21.5 22.25 21.5H41C41 21.1022 40.842 20.7206 40.5607 20.4393C40.2794 20.158 39.8978 20 39.5 20H22.25C21.6533 20 21.081 20.2371 20.659 20.659C20.2371 21.081 20 21.6533 20 22.25Z" fill="white"/>
<path d="M25.25 23C24.6533 23 24.081 23.237 23.659 23.659C23.237 24.081 23 24.6533 23 25.25V41.75C23 42.3467 23.237 42.919 23.659 43.341C24.081 43.7629 24.6533 44 25.25 44H34.379C34.9755 43.9995 35.5474 43.7621 35.969 43.34L43.3415 35.969C43.763 35.5472 43.9999 34.9753 44 34.379V25.25C44 24.6533 43.7629 24.081 43.341 23.659C42.919 23.237 42.3467 23 41.75 23H25.25ZM34.25 35.75C34.25 35.3522 34.408 34.9706 34.6893 34.6893C34.9706 34.408 35.3522 34.25 35.75 34.25H42.344C42.4183 34.2499 42.4909 34.2718 42.5527 34.313C42.6145 34.3542 42.6626 34.4128 42.6911 34.4814C42.7195 34.55 42.727 34.6255 42.7124 34.6983C42.6979 34.7712 42.6621 34.8381 42.6095 34.8905L34.8905 42.6095C34.8381 42.6621 34.7712 42.6979 34.6983 42.7124C34.6255 42.727 34.55 42.7195 34.4814 42.6911C34.4128 42.6626 34.3542 42.6145 34.313 42.5527C34.2718 42.4909 34.2499 42.4183 34.25 42.344V35.75Z" fill="white"/>
</g>
</g>
<defs>
<linearGradient id="paint0_linear_978_72" x1="32" y1="0" x2="32" y2="64" gradientUnits="userSpaceOnUse">
<stop stop-color="#0CE0FF"/>
<stop offset="1" stop-color="#015FC9"/>
</linearGradient>
<clipPath id="clip0_978_72">
<rect width="24" height="24" fill="white" transform="translate(20 20)"/>
</clipPath>
</defs>
</svg>
