<svg width="64" height="64" viewBox="0 0 64 64" fill="none" xmlns="http://www.w3.org/2000/svg">
<rect width="64" height="64" rx="32" fill="url(#paint0_linear_978_73)"/>
<g clip-path="url(#clip0_978_73)">
<path fill-rule="evenodd" clip-rule="evenodd" d="M35.6391 29.7393C36.3239 29.7393 36.879 30.2843 36.879 30.9567V38.2609C36.879 38.9333 36.3239 39.4783 35.6391 39.4783C34.9543 39.4783 34.3992 38.9333 34.3992 38.2609V30.9567C34.3992 30.2843 34.9543 29.7393 35.6391 29.7393ZM31.9193 30.9567C32.6041 30.9567 33.1593 31.5017 33.1593 32.1741V38.2609C33.1593 38.9333 32.6041 39.4783 31.9193 39.4783C31.2345 39.4783 30.6794 38.9333 30.6794 38.2609V32.1741C30.6794 31.5017 31.2345 30.9567 31.9193 30.9567ZM29.4395 34.6088C29.4395 33.9365 28.8844 33.3914 28.1996 33.3914C27.5148 33.3914 26.9597 33.9365 26.9597 34.6088V38.2609C26.9597 38.9333 27.5148 39.4783 28.1996 39.4783C28.8844 39.4783 29.4395 38.9333 29.4395 38.2609V34.6088ZM32.517 20.0002C33.3586 19.9989 34.1056 19.9978 34.7954 20.2783C35.4853 20.5589 36.0128 21.0783 36.607 21.6635C37.7844 22.8231 38.9637 23.9809 40.1447 25.1369C40.7407 25.7203 41.2698 26.2382 41.5555 26.9155C41.8413 27.5929 41.8402 28.3263 41.8388 29.1526C41.8341 32.2155 41.8387 35.2782 41.8387 38.3412C41.8388 39.4204 41.8388 40.3502 41.7369 41.0947C41.6275 41.8927 41.3811 42.6577 40.7491 43.2782C40.1173 43.8986 39.3381 44.1406 38.5254 44.2479C37.7669 44.3479 36.8199 44.3479 35.7207 44.3478H28.118C27.0188 44.3479 26.0717 44.3479 25.3133 44.2479C24.5005 44.1406 23.7214 43.8986 23.0895 43.2782C22.4576 42.6577 22.2111 41.8927 22.1019 41.0947C21.9999 40.3502 21.9999 39.4204 22 38.3412L22 26.0872C22 26.0604 22 26.0337 22 26.0071C21.9999 24.9279 21.9999 23.9981 22.1019 23.2534C22.2111 22.4554 22.4576 21.6905 23.0895 21.07C23.7214 20.4496 24.5005 20.2076 25.3133 20.1003C26.0717 20.0002 27.0188 20.0003 28.118 20.0003C29.5843 20.0004 31.0507 20.0024 32.517 20.0002Z" fill="white"/>
</g>
<defs>
<linearGradient id="paint0_linear_978_73" x1="32" y1="0" x2="32" y2="64" gradientUnits="userSpaceOnUse">
<stop stop-color="#0CE0FF"/>
<stop offset="1" stop-color="#015FC9"/>
</linearGradient>
<clipPath id="clip0_978_73">
<rect width="20" height="25" fill="white" transform="translate(22 20)"/>
</clipPath>
</defs>
</svg>
