<svg width="64" height="64" viewBox="0 0 64 64" fill="none" xmlns="http://www.w3.org/2000/svg">
<rect width="64" height="64" rx="32" fill="url(#paint0_linear_978_62)"/>
<g clip-path="url(#clip0_978_62)">
<path fill-rule="evenodd" clip-rule="evenodd" d="M33.6003 20.9225C32.2165 19.6925 30.1313 19.6925 28.7475 20.9225L19.4086 29.2238C18.9061 29.6705 18.8608 30.44 19.3075 30.9425C19.7542 31.4449 20.5237 31.4902 21.0262 31.0435L21.4348 30.6804V37.5181C21.4347 38.5973 21.4347 39.5272 21.5348 40.2719C21.6421 41.0698 21.884 41.8349 22.5045 42.4552C23.1249 43.0757 23.8899 43.3176 24.6879 43.425C25.4326 43.5251 26.3624 43.525 27.4416 43.525H34.9062C35.9854 43.525 36.9152 43.5251 37.6599 43.425C38.4579 43.3176 39.2229 43.0757 39.8433 42.4552C40.4638 41.8349 40.7057 41.0698 40.8131 40.2719C40.9131 39.5272 40.9131 38.5973 40.913 37.5182V30.6804L41.3216 31.0435C41.8241 31.4902 42.5936 31.4449 43.0403 30.9425C43.4869 30.44 43.4418 29.6705 42.9392 29.2238L33.6003 20.9225ZM31.1739 36.2206C30.5015 36.2206 29.9565 36.7656 29.9565 37.438V39.8728C29.9565 40.5452 29.4115 41.0902 28.7391 41.0902C28.0668 41.0902 27.5217 40.5452 27.5217 39.8728V37.438C27.5217 35.4209 29.1568 33.7858 31.1739 33.7858C33.191 33.7858 34.8261 35.4209 34.8261 37.438V39.8728C34.8261 40.5452 34.281 41.0902 33.6087 41.0902C32.9363 41.0902 32.3913 40.5452 32.3913 39.8728V37.438C32.3913 36.7656 31.8463 36.2206 31.1739 36.2206Z" fill="white"/>
</g>
<defs>
<linearGradient id="paint0_linear_978_62" x1="32" y1="0" x2="32" y2="64" gradientUnits="userSpaceOnUse">
<stop stop-color="#0CE0FF"/>
<stop offset="1" stop-color="#015FC9"/>
</linearGradient>
<clipPath id="clip0_978_62">
<rect width="25" height="24" fill="white" transform="translate(19 20)"/>
</clipPath>
</defs>
</svg>
