<svg width="64" height="64" viewBox="0 0 64 64" fill="none" xmlns="http://www.w3.org/2000/svg">
<rect width="64" height="64" rx="32" fill="url(#paint0_linear_978_63)"/>
<g clip-path="url(#clip0_978_63)">
<mask id="mask0_978_63" style="mask-type:luminance" maskUnits="userSpaceOnUse" x="20" y="20" width="24" height="24">
<path d="M44 20H20V44H44V20Z" fill="white"/>
</mask>
<g mask="url(#mask0_978_63)">
<path d="M22.25 23C21.6533 23 21.081 23.237 20.659 23.659C20.2371 24.081 20 24.6533 20 25.25V28.25H29C29.1989 28.25 29.3897 28.329 29.5303 28.4697C29.671 28.6103 29.75 28.8011 29.75 29C29.75 29.3795 29.87 29.966 30.209 30.437C30.5195 30.869 31.0445 31.25 32 31.25C32.9555 31.25 33.4805 30.869 33.791 30.437C34.13 29.966 34.25 29.3795 34.25 29C34.25 28.8011 34.329 28.6103 34.4697 28.4697C34.6103 28.329 34.8011 28.25 35 28.25H44V25.25C44 24.6533 43.7629 24.081 43.341 23.659C42.919 23.237 42.3467 23 41.75 23H22.25Z" fill="white"/>
<path d="M44 29.75H35.6735C35.565 30.3121 35.3385 30.8448 35.009 31.313C34.4195 32.132 33.4445 32.75 32 32.75C30.5555 32.75 29.5805 32.132 28.991 31.313C28.6615 30.8448 28.435 30.3121 28.3265 29.75H20V38.75C20 39.3467 20.2371 39.919 20.659 40.341C21.081 40.7629 21.6533 41 22.25 41H41.75C42.3467 41 42.919 40.7629 43.341 40.341C43.7629 39.919 44 39.3467 44 38.75V29.75Z" fill="white"/>
</g>
</g>
<defs>
<linearGradient id="paint0_linear_978_63" x1="32" y1="0" x2="32" y2="64" gradientUnits="userSpaceOnUse">
<stop stop-color="#0CE0FF"/>
<stop offset="1" stop-color="#015FC9"/>
</linearGradient>
<clipPath id="clip0_978_63">
<rect width="24" height="24" fill="white" transform="translate(20 20)"/>
</clipPath>
</defs>
</svg>
