<svg width="36" height="36" viewBox="0 0 36 36" fill="none" xmlns="http://www.w3.org/2000/svg">
<path d="M17.3707 7.16406C18.4128 4.50774 18.9339 3.17956 20.0235 3.01584C21.1132 2.85211 22.0498 3.96124 23.9232 6.1795L24.4078 6.75339C24.9402 7.38375 25.2063 7.69894 25.5682 7.87891C25.9302 8.05888 26.3467 8.08326 27.1801 8.13202L27.9387 8.17642C30.8712 8.34805 32.3374 8.43387 32.8462 9.39252C33.355 10.3512 32.5695 11.5478 30.9984 13.941L30.5919 14.5602C30.1455 15.2403 29.9223 15.5803 29.862 15.9685C29.8017 16.3567 29.911 16.7493 30.1299 17.5342L30.3292 18.249C31.0995 21.0114 31.4847 22.3926 30.7095 23.1487C29.9343 23.905 28.5121 23.5354 25.6677 22.7962L24.9319 22.605C24.1236 22.395 23.7195 22.29 23.3203 22.3498C22.9212 22.4098 22.5721 22.6281 21.8742 23.0644L21.2386 23.4618C18.7822 24.9973 17.554 25.7652 16.5661 25.2739C15.5781 24.7825 15.4848 23.3575 15.298 20.5075L15.2497 19.7701C15.1966 18.9603 15.1701 18.5553 14.9837 18.2041C14.7973 17.853 14.4722 17.5953 13.8219 17.08L13.2298 16.6108C10.9414 14.7976 9.79724 13.8909 9.96186 12.8311C10.1265 11.7712 11.4909 11.2601 14.2198 10.2378L14.9258 9.97332C15.7012 9.68283 16.089 9.53758 16.373 9.26056C16.6569 8.98354 16.8049 8.60613 17.1012 7.85128L17.3707 7.16406Z" fill="#1C74E9"/>
<g opacity="0.5">
<path d="M7.96504 14.3892C4.30938 17.882 1.91251 23.7087 3.49687 33.0003C4.91104 29.0949 8.78589 25.8611 13.3683 23.9292C13.2084 23.0402 13.1374 21.9546 13.0627 20.81L13.0042 19.9173C12.9906 19.7096 12.9802 19.5521 12.9691 19.4165C12.9645 19.3602 12.9602 19.3131 12.9561 19.2734C12.9213 19.2435 12.8789 19.208 12.8268 19.1654C12.7181 19.0766 12.5907 18.9755 12.4242 18.8435L11.7114 18.2787C10.6717 17.4552 9.70326 16.6881 9.03739 15.9807C8.65773 15.5775 8.23314 15.0456 7.96504 14.3892Z" fill="#1C74E9"/>
<path d="M15.5199 23.1346C15.5123 23.0785 15.5048 23.0212 15.4974 22.9629L15.5816 23.115C15.561 23.1216 15.5405 23.128 15.5199 23.1346Z" fill="#1C74E9"/>
</g>
</svg>
