<svg width="24" height="24" viewBox="0 0 24 24" fill="none" xmlns="http://www.w3.org/2000/svg">
<g clip-path="url(#clip0_930_65)">
<path d="M8.6355 1.60669C8.72002 1.6573 8.79374 1.72406 8.85245 1.80317C8.91116 1.88228 8.95371 1.97218 8.97767 2.06774C9.00163 2.16329 9.00652 2.26263 8.99208 2.36008C8.97764 2.45753 8.94414 2.55118 8.8935 2.63569L5.0745 9.00019H18.9255L15.105 2.63569C15.0028 2.46502 14.9725 2.26073 15.0209 2.06775C15.0693 1.87478 15.1923 1.70893 15.363 1.60669C15.5337 1.50444 15.738 1.47419 15.9309 1.52257C16.1239 1.57096 16.2898 1.69402 16.392 1.86469L20.6745 9.00019H23.25C23.4489 9.00019 23.6397 9.0792 23.7803 9.21986C23.921 9.36051 24 9.55127 24 9.75019V11.2502C24 11.4491 23.921 11.6399 23.7803 11.7805C23.6397 11.9212 23.4489 12.0002 23.25 12.0002H0.75C0.551088 12.0002 0.360322 11.9212 0.21967 11.7805C0.0790176 11.6399 0 11.4491 0 11.2502V9.75019C0 9.55127 0.0790176 9.36051 0.21967 9.21986C0.360322 9.0792 0.551088 9.00019 0.75 9.00019H3.3255L7.605 1.86469C7.65561 1.78017 7.72238 1.70645 7.80149 1.64774C7.8806 1.58903 7.9705 1.54648 8.06605 1.52252C8.16161 1.49856 8.26095 1.49366 8.3584 1.5081C8.45585 1.52254 8.551 1.55604 8.6355 1.60669ZM3.702 23.1392L1.4145 13.5002H22.5855L20.298 23.1392C20.2388 23.3846 20.0987 23.6029 19.9004 23.7591C19.702 23.9152 19.4569 24.0002 19.2045 24.0002H4.7955C4.5428 24.0005 4.29736 23.9157 4.09872 23.7595C3.90007 23.6033 3.7613 23.3848 3.702 23.1392Z" fill="#1C74E9"/>
</g>
<defs>
<clipPath id="clip0_930_65">
<rect width="24" height="24" fill="white"/>
</clipPath>
</defs>
</svg>
