<svg width="64" height="64" viewBox="0 0 64 64" fill="none" xmlns="http://www.w3.org/2000/svg">
<rect width="64" height="64" rx="32" fill="#EEEEEE"/>
<g clip-path="url(#clip0_978_108)">
<mask id="mask0_978_108" style="mask-type:luminance" maskUnits="userSpaceOnUse" x="20" y="20" width="24" height="24">
<path d="M44 20H20V44H44V20Z" fill="white"/>
</mask>
<g mask="url(#mask0_978_108)">
<path d="M28.6355 21.6067C28.72 21.6573 28.7937 21.7241 28.8525 21.8032C28.9112 21.8823 28.9537 21.9722 28.9777 22.0677C29.0016 22.1633 29.0065 22.2626 28.9921 22.3601C28.9776 22.4575 28.9441 22.5512 28.8935 22.6357L25.0745 29.0002H38.9255L35.105 22.6357C35.0028 22.465 34.9725 22.2607 35.0209 22.0678C35.0693 21.8748 35.1923 21.7089 35.363 21.6067C35.5337 21.5044 35.738 21.4742 35.9309 21.5226C36.1239 21.571 36.2898 21.694 36.392 21.8647L40.6745 29.0002H43.25C43.4489 29.0002 43.6397 29.0792 43.7803 29.2199C43.921 29.3605 44 29.5513 44 29.7502V31.2502C44 31.4491 43.921 31.6399 43.7803 31.7805C43.6397 31.9212 43.4489 32.0002 43.25 32.0002H20.75C20.5511 32.0002 20.3603 31.9212 20.2197 31.7805C20.079 31.6399 20 31.4491 20 31.2502V29.7502C20 29.5513 20.079 29.3605 20.2197 29.2199C20.3603 29.0792 20.5511 29.0002 20.75 29.0002H23.3255L27.605 21.8647C27.6556 21.7802 27.7224 21.7065 27.8015 21.6477C27.8806 21.589 27.9705 21.5465 28.066 21.5225C28.1616 21.4986 28.261 21.4937 28.3584 21.5081C28.4559 21.5225 28.551 21.556 28.6355 21.6067ZM23.702 43.1392L21.4145 33.5002H42.5855L40.298 43.1392C40.2388 43.3846 40.0987 43.6029 39.9004 43.7591C39.702 43.9152 39.4569 44.0002 39.2045 44.0002H24.7955C24.5428 44.0005 24.2974 43.9157 24.0987 43.7595C23.9001 43.6033 23.7613 43.3848 23.702 43.1392Z" fill="black"/>
</g>
</g>
<defs>
<clipPath id="clip0_978_108">
<rect width="24" height="24" fill="white" transform="translate(20 20)"/>
</clipPath>
</defs>
</svg>
