<svg width="64" height="64" viewBox="0 0 64 64" fill="none" xmlns="http://www.w3.org/2000/svg">
<rect width="64" height="64" rx="32" fill="url(#paint0_linear_978_65)"/>
<g clip-path="url(#clip0_978_65)">
<path fill-rule="evenodd" clip-rule="evenodd" d="M19 30.5215H43.3478V35.4712C43.348 36.5504 43.348 37.4802 43.2479 38.2249C43.1405 39.0229 42.8986 39.7879 42.2781 40.4083C41.6577 41.0288 40.8927 41.2707 40.0947 41.3781C39.3501 41.4781 38.4202 41.4781 37.341 41.478H25.0068C23.9276 41.4781 22.9978 41.4781 22.2531 41.3781C21.4551 41.2707 20.6902 41.0288 20.0697 40.4083C19.4492 39.7879 19.2073 39.0229 19.1 38.2249C18.9999 37.4802 18.9999 36.5504 19 35.4712V30.5215ZM22.6522 34.1737C22.6522 33.5013 23.1972 32.9563 23.8696 32.9563H26.3043C26.9767 32.9563 27.5217 33.5013 27.5217 34.1737C27.5217 34.846 26.9767 35.391 26.3043 35.391H23.8696C23.1972 35.391 22.6522 34.846 22.6522 34.1737ZM28.7391 34.1737C28.7391 33.5013 29.2842 32.9563 29.9566 32.9563H32.3913C33.0637 32.9563 33.6087 33.5013 33.6087 34.1737C33.6087 34.846 33.0637 35.391 32.3913 35.391H29.9566C29.2842 35.391 28.7391 34.846 28.7391 34.1737Z" fill="white"/>
<path d="M43.3478 28.087V28.0068C43.3479 26.9276 43.3479 25.9978 43.2479 25.2531C43.1405 24.4551 42.8986 23.6902 42.2781 23.0697C41.6577 22.4492 40.8927 22.2073 40.0947 22.1C39.35 21.9999 38.4202 21.9999 37.341 22H25.0068C23.9276 21.9999 22.9978 21.9999 22.2531 22.1C21.4551 22.2073 20.6902 22.4492 20.0697 23.0697C19.4492 23.6902 19.2073 24.4551 19.1 25.2531C18.9999 25.9978 18.9999 26.9276 19 28.0068V28.087L43.3478 28.087Z" fill="white"/>
</g>
<defs>
<linearGradient id="paint0_linear_978_65" x1="32" y1="0" x2="32" y2="64" gradientUnits="userSpaceOnUse">
<stop stop-color="#0CE0FF"/>
<stop offset="1" stop-color="#015FC9"/>
</linearGradient>
<clipPath id="clip0_978_65">
<rect width="25" height="20" fill="white" transform="translate(19 22)"/>
</clipPath>
</defs>
</svg>
