<svg width="25" height="20" viewBox="0 0 25 20" fill="none" xmlns="http://www.w3.org/2000/svg">
<path fill-rule="evenodd" clip-rule="evenodd" d="M0.00024712 8.52148H24.348V13.4712C24.3482 14.5504 24.3482 15.4802 24.2481 16.2249C24.1407 17.0229 23.8988 17.7879 23.2783 18.4083C22.6579 19.0288 21.8929 19.2707 21.0949 19.3781C20.3503 19.4781 19.4204 19.4781 18.3412 19.478H6.00702C4.92784 19.4781 3.998 19.4781 3.25337 19.3781C2.45536 19.2707 1.69041 19.0288 1.06996 18.4083C0.449488 17.7879 0.207544 17.0229 0.100256 16.2249C0.000137529 15.4802 0.00018625 14.5504 0.00024712 13.4712V8.52148ZM3.65242 12.1737C3.65242 11.5013 4.19747 10.9563 4.86981 10.9563H7.30459C7.97693 10.9563 8.52198 11.5013 8.52198 12.1737C8.52198 12.846 7.97693 13.391 7.30459 13.391H4.86981C4.19747 13.391 3.65242 12.846 3.65242 12.1737ZM9.73937 12.1737C9.73937 11.5013 10.2844 10.9563 10.9568 10.9563H13.3915C14.0639 10.9563 14.6089 11.5013 14.6089 12.1737C14.6089 12.846 14.0639 13.391 13.3915 13.391H10.9568C10.2844 13.391 9.73937 12.846 9.73937 12.1737Z" fill="#1C74E9"/>
<path d="M24.3478 6.08697V6.00683C24.3479 4.92762 24.3479 3.99776 24.2479 3.25313C24.1405 2.45512 23.8986 1.69017 23.2781 1.06971C22.6577 0.449244 21.8927 0.2073 21.0947 0.100012C20.35 -0.000106612 19.4202 -5.78904e-05 18.341 2.97915e-06H6.00682C4.92762 -5.78904e-05 3.99777 -0.000106612 3.25314 0.100012C2.45511 0.2073 1.69017 0.449245 1.06971 1.0697C0.449244 1.69017 0.2073 2.45512 0.100012 3.25313C-0.000106612 3.99777 -5.78904e-05 4.92764 2.97915e-06 6.00685V6.08696L24.3478 6.08697Z" fill="#1C74E9"/>
</svg>
