<svg width="64" height="64" viewBox="0 0 64 64" fill="none" xmlns="http://www.w3.org/2000/svg">
<rect width="64" height="64" rx="32" fill="url(#paint0_linear_978_67)"/>
<path d="M20 38.75V25.25C20 24.6533 20.2371 24.081 20.659 23.659C21.081 23.237 21.6533 23 22.25 23H41.75C42.3467 23 42.919 23.237 43.341 23.659C43.7629 24.081 44 24.6533 44 25.25V38.75C44 39.3467 43.7629 39.919 43.341 40.341C42.919 40.7629 42.3467 41 41.75 41H22.25C21.6533 41 21.081 40.7629 20.659 40.341C20.2371 39.919 20 39.3467 20 38.75ZM23.75 26C23.5511 26 23.3603 26.079 23.2197 26.2197C23.079 26.3603 23 26.5511 23 26.75V31.25C23 31.4489 23.079 31.6397 23.2197 31.7803C23.3603 31.921 23.5511 32 23.75 32C23.9489 32 24.1397 31.921 24.2803 31.7803C24.421 31.6397 24.5 31.4489 24.5 31.25V27.5H28.25C28.4489 27.5 28.6397 27.421 28.7803 27.2803C28.921 27.1397 29 26.9489 29 26.75C29 26.5511 28.921 26.3603 28.7803 26.2197C28.6397 26.079 28.4489 26 28.25 26H23.75ZM40.25 38C40.4489 38 40.6397 37.921 40.7803 37.7803C40.921 37.6397 41 37.4489 41 37.25V32.75C41 32.5511 40.921 32.3603 40.7803 32.2197C40.6397 32.079 40.4489 32 40.25 32C40.0511 32 39.8603 32.079 39.7197 32.2197C39.579 32.3603 39.5 32.5511 39.5 32.75V36.5H35.75C35.5511 36.5 35.3603 36.579 35.2197 36.7197C35.079 36.8603 35 37.0511 35 37.25C35 37.4489 35.079 37.6397 35.2197 37.7803C35.3603 37.921 35.5511 38 35.75 38H40.25Z" fill="white"/>
<defs>
<linearGradient id="paint0_linear_978_67" x1="32" y1="0" x2="32" y2="64" gradientUnits="userSpaceOnUse">
<stop stop-color="#0CE0FF"/>
<stop offset="1" stop-color="#015FC9"/>
</linearGradient>
</defs>
</svg>
