<svg width="25" height="25" viewBox="0 0 25 25" fill="none" xmlns="http://www.w3.org/2000/svg">
<path fill-rule="evenodd" clip-rule="evenodd" d="M9.57532 0.0828778C11.8558 -0.430299 13.5105 1.53017 13.5105 3.468V9.60912C13.5105 10.2875 14.0604 10.8374 14.7387 10.8374H20.8798C22.8176 10.8374 24.7781 12.492 24.265 14.7725C23.0317 20.253 18.1366 24.3478 12.2823 24.3478C5.49895 24.3478 0 18.8488 0 12.0656C0 6.21122 4.09475 1.31617 9.57532 0.0828778Z" fill="#1C74E9"/>
<path fill-rule="evenodd" clip-rule="evenodd" d="M23.5747 8.48216C22.924 9.20405 21.9516 9.62588 20.9318 9.62588H18.448C16.3905 9.62588 14.7224 7.95785 14.7224 5.90024V3.41647C14.7224 2.39669 15.1443 1.42424 15.8662 0.773564C16.6129 0.100451 17.6887 -0.220563 18.8094 0.167438C21.3226 1.03756 23.3107 3.02565 24.1809 5.53891C24.5688 6.65957 24.2478 7.73538 23.5747 8.48216Z" fill="#1C74E9"/>
</svg>
