<svg width="64" height="64" viewBox="0 0 64 64" fill="none" xmlns="http://www.w3.org/2000/svg">
<rect width="64" height="64" rx="32" fill="url(#paint0_linear_978_69)"/>
<path d="M23.75 21.5C23.1533 21.5 22.581 21.737 22.159 22.159C21.737 22.581 21.5 23.1533 21.5 23.75V40.25C21.5 40.8467 21.737 41.419 22.159 41.841C22.581 42.2629 23.1533 42.5 23.75 42.5H32.879C33.4755 42.4995 34.0474 42.2621 34.469 41.84L41.8415 34.469C42.263 34.0472 42.4999 33.4753 42.5 32.879V23.75C42.5 23.1533 42.2629 22.581 41.841 22.159C41.419 21.737 40.8467 21.5 40.25 21.5H23.75ZM32.75 34.25C32.75 33.8522 32.908 33.4706 33.1893 33.1893C33.4706 32.908 33.8522 32.75 34.25 32.75H40.844C40.9183 32.7499 40.9909 32.7718 41.0527 32.813C41.1145 32.8542 41.1626 32.9128 41.1911 32.9814C41.2195 33.05 41.227 33.1255 41.2124 33.1983C41.1979 33.2712 41.1621 33.3381 41.1095 33.3905L33.3905 41.1095C33.3381 41.1621 33.2712 41.1979 33.1983 41.2124C33.1255 41.227 33.05 41.2195 32.9814 41.1911C32.9128 41.1626 32.8542 41.1145 32.813 41.0527C32.7718 40.9909 32.7499 40.9183 32.75 40.844V34.25Z" fill="white"/>
<defs>
<linearGradient id="paint0_linear_978_69" x1="32" y1="0" x2="32" y2="64" gradientUnits="userSpaceOnUse">
<stop stop-color="#0CE0FF"/>
<stop offset="1" stop-color="#015FC9"/>
</linearGradient>
</defs>
</svg>
