<svg width="64" height="64" viewBox="0 0 64 64" fill="none" xmlns="http://www.w3.org/2000/svg">
<rect width="64" height="64" rx="32" fill="#EEEEEE"/>
<g clip-path="url(#clip0_978_125)">
<path fill-rule="evenodd" clip-rule="evenodd" d="M43.3477 26.0869V26.0068C43.3479 24.9276 43.3479 23.9977 43.2478 23.2531C43.1404 22.4551 42.8985 21.6902 42.278 21.0697C41.6576 20.4492 40.8926 20.2073 40.0946 20.1C39.35 19.9999 38.4201 19.9999 37.3409 20H37.2608H25.0068C23.9276 19.9999 22.9978 19.9999 22.2531 20.1C21.4551 20.2073 20.6902 20.4492 20.0697 21.0697C19.4492 21.6902 19.2073 22.4551 19.1 23.2531C18.9999 23.9978 18.9999 24.9276 19 26.0068V33.4714C18.9999 34.5506 18.9999 35.4804 19.1 36.2251C19.2073 37.0231 19.4492 37.7881 20.0697 38.4085C20.6902 39.029 21.4551 39.2709 22.2531 39.3783C22.9977 39.4783 23.9276 39.4783 25.0068 39.4782H28.7391L26.5478 42.3999C26.1444 42.9378 26.2534 43.7008 26.7913 44.1043C27.3292 44.5077 28.0922 44.3986 28.4956 43.8608L31.1739 40.2898L33.8521 43.8608C34.2556 44.3986 35.0186 44.5077 35.5565 44.1043C36.0943 43.7008 36.2034 42.9378 35.7999 42.3999L33.6087 39.4782H37.3409C38.4201 39.4783 39.35 39.4783 40.0946 39.3783C40.8926 39.2709 41.6576 39.029 42.278 38.4085C42.8985 37.7881 43.1404 37.0231 43.2478 36.2251C43.3479 35.4804 43.3479 34.5506 43.3477 33.4714V26.0869ZM38.0213 25.1363C38.5464 25.5563 38.6315 26.3224 38.2115 26.8474L35.0424 30.8087C33.6934 32.495 31.0508 32.215 30.085 30.2835C29.9139 29.9413 29.4457 29.8916 29.2066 30.1905L26.0376 34.1518C25.6175 34.6768 24.8515 34.7619 24.3264 34.3419C23.8014 33.9219 23.7163 33.1558 24.1363 32.6308L27.3054 28.6695C28.6544 26.9832 31.297 27.2631 32.2627 29.1947C32.4339 29.5369 32.9021 29.5865 33.1412 29.2877L36.3102 25.3264C36.7302 24.8014 37.4963 24.7163 38.0213 25.1363Z" fill="black"/>
</g>
<defs>
<clipPath id="clip0_978_125">
<rect width="25" height="25" fill="white" transform="translate(19 20)"/>
</clipPath>
</defs>
</svg>
