<svg width="25" height="25" viewBox="0 0 25 25" fill="none" xmlns="http://www.w3.org/2000/svg">
<path fill-rule="evenodd" clip-rule="evenodd" d="M24.3477 6.08695V6.00681C24.3479 4.92761 24.3479 3.99774 24.2478 3.25312C24.1404 2.45511 23.8985 1.69016 23.278 1.06971C22.6576 0.449243 21.8926 0.2073 21.0946 0.100011C20.35 -0.000106612 19.4201 -5.78902e-05 18.3409 2.97914e-06H18.2608H6.00681C4.92761 -5.78902e-05 3.99776 -0.000106612 3.25313 0.100011C2.45511 0.2073 1.69016 0.449243 1.06971 1.0697C0.449243 1.69016 0.2073 2.45511 0.100011 3.25312C-0.000106612 3.99776 -5.78902e-05 4.92762 2.97914e-06 6.00684V13.4714C-5.78902e-05 14.5506 -0.000106612 15.4804 0.100011 16.2251C0.2073 17.0231 0.449243 17.7881 1.06971 18.4085C1.69016 19.029 2.45511 19.2709 3.25313 19.3783C3.99774 19.4783 4.92759 19.4783 6.00676 19.4782H9.7391L7.54782 22.3999C7.14441 22.9378 7.25342 23.7008 7.79129 24.1043C8.32917 24.5077 9.09223 24.3986 9.49564 23.8608L12.1739 20.2898L14.8521 23.8608C15.2556 24.3986 16.0186 24.5077 16.5565 24.1043C17.0943 23.7008 17.2034 22.9378 16.7999 22.3999L14.6087 19.4782H18.3409C19.4201 19.4783 20.35 19.4783 21.0946 19.3783C21.8926 19.2709 22.6576 19.029 23.278 18.4085C23.8985 17.7881 24.1404 17.0231 24.2478 16.2251C24.3479 15.4804 24.3479 14.5506 24.3477 13.4714V6.08695ZM19.0213 5.13632C19.5464 5.55633 19.6315 6.32242 19.2115 6.84744L16.0424 10.8087C14.6934 12.495 12.0508 12.215 11.085 10.2835C10.9139 9.94131 10.4457 9.89164 10.2066 10.1905L7.03756 14.1518C6.61755 14.6768 5.85146 14.7619 5.32644 14.3419C4.80143 13.9219 4.71631 13.1558 5.13632 12.6308L8.30535 8.66948C9.6544 6.98317 12.297 7.26312 13.2627 9.19467C13.4339 9.53693 13.9021 9.58654 14.1412 9.28773L17.3102 5.32644C17.7302 4.80143 18.4963 4.71631 19.0213 5.13632Z" fill="#1C74E9"/>
</svg>
