<svg width="37" height="37" viewBox="0 0 37 37" fill="none" xmlns="http://www.w3.org/2000/svg">
<path d="M26.2083 18.4997C30.4655 18.4997 33.9167 15.0485 33.9167 10.7913C33.9167 6.53415 30.4655 3.08301 26.2083 3.08301C21.9512 3.08301 18.5 6.53415 18.5 10.7913C18.5 12.0244 18.7895 13.1899 19.3043 14.2235C19.4412 14.4981 19.4867 14.8121 19.4074 15.1085L18.9483 16.8243C18.749 17.5693 19.4304 18.2507 20.1753 18.0514L21.8912 17.5922C22.1877 17.513 22.5015 17.5585 22.7763 17.6954C23.8098 18.2101 24.9753 18.4997 26.2083 18.4997Z" stroke="white" stroke-width="2"/>
<path d="M22.5769 25.5044L23.2791 24.7652L21.6024 23.1726L20.9002 23.9119L22.5769 25.5044ZM25.5896 24.4539L28.535 26.1493L29.6886 24.1451L26.7433 22.4497L25.5896 24.4539ZM29.1034 29.6641L26.9133 31.9698L28.59 33.5624L30.7801 31.2567L29.1034 29.6641ZM25.5956 32.7086C23.3834 32.9271 17.6109 32.7407 11.3453 26.1442L10.507 26.9405L9.66864 27.7367C16.4972 34.926 23.011 35.2875 25.8227 35.01L25.5956 32.7086ZM11.3453 26.1442C5.36964 19.8528 4.36728 14.546 4.24235 12.2184L1.93318 12.3423C2.08619 15.1932 3.29667 21.0283 9.66864 27.7367L10.507 26.9405L11.3453 26.1442ZM13.4657 15.912L13.9078 15.4464L12.2311 13.8539L11.789 14.3194L13.4657 15.912ZM14.2552 9.65055L12.3112 6.901L10.423 8.23604L12.367 10.9856L14.2552 9.65055ZM5.73137 6.30823L3.31157 8.85582L4.98825 10.4484L7.40805 7.90082L5.73137 6.30823ZM12.6273 15.1157C11.789 14.3194 11.7868 14.3216 11.7868 14.3216L11.7846 14.324L11.7802 14.3287C11.7771 14.332 11.774 14.3354 11.7708 14.339C11.7643 14.3461 11.7574 14.3538 11.7502 14.3621C11.7358 14.3787 11.72 14.3976 11.703 14.419C11.6691 14.4619 11.6308 14.5145 11.5906 14.5773C11.5099 14.7034 11.4224 14.8694 11.3484 15.0775C11.1977 15.5008 11.1157 16.0614 11.2182 16.7615C11.4197 18.1368 12.3209 19.9863 14.6756 22.4653L16.3523 20.8728C14.1513 18.5555 13.6092 17.1284 13.5063 16.4261C13.4567 16.0874 13.5071 15.9089 13.527 15.8528C13.5383 15.8213 13.5456 15.8126 13.5384 15.8238C13.5349 15.8292 13.528 15.8394 13.5163 15.8542C13.5105 15.8614 13.5035 15.8701 13.4951 15.8796C13.4909 15.8846 13.4864 15.8896 13.4815 15.895C13.479 15.8977 13.4765 15.9004 13.4738 15.9032L13.4698 15.9075L13.4678 15.9098C13.4678 15.9098 13.4657 15.912 12.6273 15.1157ZM14.6756 22.4653C17.0234 24.9371 18.7964 25.9088 20.1492 26.1285C20.8435 26.2412 21.4054 26.1511 21.8309 25.9834C22.0389 25.9014 22.2034 25.805 22.3269 25.7175C22.3885 25.6737 22.4399 25.6322 22.4812 25.596C22.502 25.5778 22.5202 25.5608 22.5361 25.5454C22.5441 25.5378 22.5515 25.5305 22.5583 25.5237C22.5616 25.5203 22.5649 25.5169 22.568 25.5136L22.5726 25.509L22.5748 25.5067C22.5748 25.5067 22.5769 25.5044 21.7386 24.7081C20.9002 23.9119 20.9024 23.9097 20.9024 23.9097L20.9044 23.9074L20.9085 23.9032C20.9113 23.9004 20.9139 23.8977 20.9164 23.8951C20.9216 23.89 20.9266 23.885 20.9312 23.8806C20.9404 23.8716 20.9489 23.8639 20.9563 23.8574C20.971 23.8445 20.9819 23.8362 20.989 23.8312C21.0035 23.8209 21.0019 23.8244 20.9824 23.8321C20.9526 23.8439 20.8125 23.8934 20.52 23.8459C19.8993 23.745 18.5603 23.1973 16.3523 20.8728L14.6756 22.4653ZM12.3112 6.901C10.7486 4.6909 7.62173 4.31803 5.73137 6.30823L7.40805 7.90082C8.2141 7.05221 9.63309 7.11887 10.423 8.23604L12.3112 6.901ZM4.24235 12.2184C4.20931 11.6028 4.47736 10.9863 4.98825 10.4484L3.31157 8.85582C2.48546 9.72555 1.85757 10.9337 1.93318 12.3423L4.24235 12.2184ZM26.9133 31.9698C26.4832 32.4228 26.0332 32.6654 25.5956 32.7086L25.8227 35.01C26.9745 34.8962 27.9066 34.282 28.59 33.5624L26.9133 31.9698ZM13.9078 15.4464C15.3995 13.876 15.5051 11.4183 14.2552 9.65055L12.367 10.9856C13.0178 11.9061 12.918 13.1307 12.2311 13.8539L13.9078 15.4464ZM28.535 26.1493C29.8004 26.8777 30.0481 28.6696 29.1034 29.6641L30.7801 31.2567C32.7918 29.1386 32.206 25.5941 29.6886 24.1451L28.535 26.1493ZM23.2791 24.7652C23.8733 24.1396 24.7992 23.999 25.5896 24.4539L26.7433 22.4497C25.0497 21.4749 22.9494 21.7544 21.6024 23.1726L23.2791 24.7652Z" fill="white"/>
</svg>
