<svg width="28" height="28" viewBox="0 0 28 28" fill="none" xmlns="http://www.w3.org/2000/svg">
<path fill-rule="evenodd" clip-rule="evenodd" d="M26.9709 7.49275V7.40726C26.9711 6.25612 26.9711 5.26426 26.8643 4.46999C26.7498 3.61878 26.4918 2.80284 25.8299 2.14102C25.1682 1.47919 24.3522 1.22112 23.501 1.10668C22.7066 0.999886 21.7148 0.999938 20.5636 1H20.4782H7.40726C6.25612 0.999938 5.26427 0.999886 4.47 1.10668C3.61878 1.22112 2.80284 1.47919 2.14102 2.14101C1.47919 2.80284 1.22112 3.61878 1.10668 4.46999C0.999886 5.26427 0.999938 6.25613 1 7.40729V15.3695C0.999938 16.5206 0.999886 17.5124 1.10668 18.3068C1.22112 19.158 1.47919 19.974 2.14102 20.6357C2.80284 21.2976 3.61878 21.5556 4.47 21.6701C5.26426 21.7769 6.25609 21.7769 7.40721 21.7767H11.3884L9.051 24.8933C8.6207 25.467 8.73698 26.2809 9.31071 26.7112C9.88445 27.1416 10.6984 27.0252 11.1287 26.4515L13.9855 22.6425L16.8423 26.4515C17.2726 27.0252 18.0865 27.1416 18.6602 26.7112C19.2339 26.2809 19.3503 25.467 18.9199 24.8933L16.5826 21.7767H20.5636C21.7148 21.7769 22.7066 21.7769 23.501 21.6701C24.3522 21.5556 25.1682 21.2976 25.8299 20.6357C26.4918 19.974 26.7498 19.158 26.8643 18.3068C26.9711 17.5124 26.9711 16.5206 26.9709 15.3695V7.49275ZM21.2894 6.47874C21.8495 6.92675 21.9402 7.74391 21.4922 8.30394L18.1119 12.5293C16.6729 14.328 13.8542 14.0294 12.824 11.9691C12.6415 11.6041 12.1421 11.5511 11.887 11.8699L8.50673 16.0952C8.05872 16.6553 7.24156 16.746 6.68153 16.298C6.12152 15.85 6.03073 15.0329 6.47874 14.4728L9.85904 10.2474C11.298 8.44871 14.1167 8.74732 15.1469 10.8077C15.3295 11.1727 15.8289 11.2256 16.0839 10.9069L19.4642 6.68153C19.9122 6.12152 20.7293 6.03073 21.2894 6.47874Z" fill="white"/>
</svg>
