<svg width="28" height="28" viewBox="0 0 28 28" fill="none" xmlns="http://www.w3.org/2000/svg">
<path fill-rule="evenodd" clip-rule="evenodd" d="M11.2137 1.0884C13.6462 0.541015 15.4112 2.63218 15.4112 4.6992V11.2497C15.4112 11.9733 15.9977 12.5599 16.7213 12.5599H23.2718C25.3388 12.5599 27.43 14.3248 26.8826 16.7573C25.5671 22.6033 20.3457 26.971 14.1011 26.971C6.86555 26.971 1 21.1054 1 13.87C1 7.6253 5.36773 2.40392 11.2137 1.0884Z" fill="black"/>
<path fill-rule="evenodd" clip-rule="evenodd" d="M26.1475 10.0476C25.4534 10.8177 24.4162 11.2676 23.3284 11.2676H20.6791C18.4844 11.2676 16.7051 9.48838 16.7051 7.29359V4.64424C16.7051 3.55647 17.1551 2.51918 17.9251 1.82513C18.7216 1.10715 19.8692 0.764733 21.0645 1.1786C23.7453 2.10673 25.8659 4.22737 26.7941 6.90817C27.2079 8.10355 26.8655 9.25107 26.1475 10.0476Z" fill="black"/>
</svg>
