<svg width="36" height="36" viewBox="0 0 36 36" fill="none" xmlns="http://www.w3.org/2000/svg">
<g clip-path="url(#clip0_1016_11)">
<path d="M11.5833 4.00022C7.402 4.00022 4 7.40222 4 11.5836C4 15.7649 7.402 19.1669 11.5833 19.1669C15.7647 19.1669 19.1667 15.7649 19.1667 11.5836C19.1667 7.40222 15.7647 4.00022 11.5833 4.00022ZM27.3333 18.0002H22.6667C20.093 18.0002 18 20.0932 18 22.6669V27.3336C18 29.9072 20.093 32.0002 22.6667 32.0002H27.3333C29.907 32.0002 32 29.9072 32 27.3336V22.6669C32 20.0932 29.907 18.0002 27.3333 18.0002ZM13.8385 25.7084C14.7263 26.5974 14.7263 28.0686 13.8233 28.9727L11.2578 31.6421C11.0292 31.8801 10.7235 32.0002 10.4167 32.0002C10.1262 32.0002 9.8345 31.8917 9.60817 31.6747C9.145 31.2279 9.12983 30.4894 9.57667 30.0251L11.042 28.5002H8.66783C6.09417 28.5002 4.00117 26.4072 4.00117 23.8336V21.5002C4.00117 20.8551 4.52267 20.3336 5.16783 20.3336C5.813 20.3336 6.3345 20.8551 6.3345 21.5002V23.8336C6.3345 25.1204 7.381 26.1669 8.66783 26.1669H11.035L9.57667 24.6421C9.12983 24.1777 9.145 23.4392 9.60817 22.9924C10.0737 22.5444 10.8122 22.5596 11.2578 23.0239L13.8385 25.7084ZM32 12.1669V14.5002C32 15.1454 31.4785 15.6669 30.8333 15.6669C30.1882 15.6669 29.6667 15.1454 29.6667 14.5002V12.1669C29.6667 10.8801 28.6202 9.83356 27.3333 9.83356H24.9662L26.4245 11.3584C26.8713 11.8227 26.8562 12.5612 26.393 13.0081C26.1667 13.2262 25.875 13.3336 25.5845 13.3336C25.2777 13.3336 24.9732 13.2134 24.7433 12.9754L22.1627 10.2909C21.2748 9.40189 21.2748 7.93072 22.1778 7.02656L24.7433 4.35722C25.189 3.89406 25.9275 3.87889 26.393 4.32572C26.8562 4.77256 26.8713 5.51106 26.4245 5.97539L24.9592 7.50022H27.3333C29.907 7.50022 32 9.59322 32 12.1669Z" fill="#1C74E9"/>
</g>
<defs>
<clipPath id="clip0_1016_11">
<rect width="28" height="28" fill="white" transform="translate(4 4)"/>
</clipPath>
</defs>
</svg>
