<svg width="45" height="45" viewBox="0 0 45 45" fill="none" xmlns="http://www.w3.org/2000/svg">
<rect width="45" height="45" rx="22.5" fill="#1C74E9" fill-opacity="0.15"/>
<path fill-rule="evenodd" clip-rule="evenodd" d="M19.3124 21.4501C18.7256 21.4501 18.2499 21.9202 18.2499 22.5001C18.2499 23.08 18.7256 23.5501 19.3124 23.5501H25.6873C26.2741 23.5501 26.7498 23.08 26.7498 22.5001C26.7498 21.9202 26.2741 21.4501 25.6873 21.4501H19.3124ZM19.3124 24.6001C18.7256 24.6001 18.2499 25.0702 18.2499 25.6501C18.2499 26.23 18.7256 26.7001 19.3124 26.7001H25.6873C26.2741 26.7001 26.7498 26.23 26.7498 25.6501C26.7498 25.0702 26.2741 24.6001 25.6873 24.6001H19.3124ZM23.012 12.0001C23.7332 11.9991 24.3732 11.9981 24.9644 12.2401C25.5556 12.4821 26.0076 12.93 26.5167 13.4348C27.5256 14.4349 28.5362 15.4335 29.5482 16.4306C30.0589 16.9338 30.5123 17.3804 30.7571 17.9646C31.002 18.5488 31.001 19.1814 30.9998 19.8941C30.9958 22.5358 30.9997 25.1775 30.9997 27.8193C30.9998 28.7501 30.9998 29.552 30.9125 30.1942C30.8188 30.8825 30.6077 31.5423 30.0661 32.0775C29.5247 32.6126 28.857 32.8213 28.1606 32.9138C27.5106 33.0001 26.6991 33.0001 25.7572 33H19.2425C18.3006 33.0001 17.4891 33.0001 16.8392 32.9138C16.1427 32.8213 15.4751 32.6126 14.9336 32.0775C14.3921 31.5423 14.1809 30.8825 14.0873 30.1942C13.9999 29.552 13.9999 28.7501 14 27.8193L14 17.2502C14 17.2271 14 17.2041 14 17.1811C13.9999 16.2503 13.9999 15.4483 14.0873 14.8061C14.1809 14.1178 14.3921 13.458 14.9336 12.9229C15.4751 12.3878 16.1427 12.1791 16.8392 12.0865C17.4891 12.0002 18.3006 12.0002 19.2425 12.0003C20.499 12.0004 21.7555 12.0021 23.012 12.0001Z" fill="#1C74E9"/>
</svg>
