<svg width="36" height="36" viewBox="0 0 36 36" fill="none" xmlns="http://www.w3.org/2000/svg">
<g clip-path="url(#clip0_1016_10)">
<path d="M12.75 30.2278V32C9.92667 32 7.48833 30.1917 6.64833 27.5317C5.00333 26.4467 4 24.6383 4 22.6667C4 21.6283 4.28 20.6367 4.805 19.75C4.28 18.8633 4 17.8717 4 16.8333C4 15.0017 4.875 13.2867 6.33333 12.19V12.1667C6.33333 9.95 7.885 8.095 9.95 7.61667C10.4283 5.55167 12.2833 4 14.5 4H14.5233C15.8067 4 16.8333 5.03833 16.8333 6.31V14.5887C16.6012 14.619 16.3678 14.647 16.1357 14.696C12.6252 15.4357 9.89867 18.3278 9.35267 21.8978C8.8615 25.1155 10.181 28.3017 12.75 30.2278ZM24.4167 23.25C24.4167 25.4655 23.2873 27.492 21.3973 28.6715C21.101 28.8558 20.9167 29.2175 20.9167 29.613V32H15.0833V29.6142C15.0833 29.2163 14.9048 28.8593 14.6167 28.6797C12.4315 27.324 11.2707 24.8005 11.6603 22.2502C12.0605 19.638 14.052 17.5193 16.6175 16.9792C18.5483 16.5708 20.5293 17.0387 22.0402 18.2648C23.551 19.4898 24.4167 21.3075 24.4167 23.25ZM20.3333 21.5H15.6667C15.6667 22.361 16.1392 23.1053 16.8333 23.5102V28.5H19.1667V23.5102C19.8608 23.1065 20.3333 22.3622 20.3333 21.5ZM32 16.8333C32 15.0017 31.125 13.2867 29.6667 12.19V12.1667C29.6667 9.95 28.115 8.095 26.05 7.61667C25.5717 5.55167 23.7167 4 21.5 4H21.4767C20.205 4 19.1667 5.03833 19.1667 6.31V14.5828C20.744 14.794 22.2455 15.4287 23.5102 16.453C25.5705 18.1237 26.75 20.6017 26.75 23.25C26.75 26.0255 25.455 28.5828 23.25 30.2278V32C26.0733 32 28.5117 30.18 29.3517 27.5317C30.9967 26.4583 32 24.6383 32 22.6667C32 21.6283 31.72 20.6367 31.195 19.75C31.72 18.8633 32 17.8717 32 16.8333Z" fill="#1C74E9"/>
</g>
<defs>
<clipPath id="clip0_1016_10">
<rect width="28" height="28" fill="white" transform="translate(4 4)"/>
</clipPath>
</defs>
</svg>
