<svg width="36" height="36" viewBox="0 0 36 36" fill="none" xmlns="http://www.w3.org/2000/svg">
<path d="M18.0653 17.0795L27.4442 24.9172L20.8012 29.9C19.1422 31.1449 16.8602 31.1449 15.2012 29.9L8.046 24.5334C7.4405 24.0795 6.70317 23.8334 5.946 23.8334H5.16783C4.52267 23.8334 4 23.3107 4 22.6667V9.75987C4 9.1672 4.44217 8.6737 5.03133 8.6072C6.6145 8.43104 8.04017 7.79521 9.4985 6.94587C11.5962 5.8667 14.3483 6.2517 16.0505 7.84654L16.7703 8.53837L12.0955 13.1012C10.8437 14.3519 10.6442 16.3294 11.6312 17.6955C12.2378 18.539 13.3357 19.1644 14.4825 19.1644C15.4077 19.1644 16.2955 18.8004 16.9372 18.1575L18.0653 17.0784V17.0795ZM27.2797 6.94587C25.308 5.96004 22.8487 6.2167 21.087 7.5852L13.7335 14.7625C13.3007 15.1965 13.2027 15.8907 13.5223 16.334C13.7323 16.6257 14.0368 16.8007 14.3845 16.8299C14.7287 16.859 15.0623 16.7342 15.3038 16.4915L19.5248 12.491C20.632 11.4399 22.2362 13.1175 21.1383 14.1769L19.7605 15.4567L29.7857 23.8345H30.8322C31.4762 23.8345 31.9988 23.3119 31.9988 22.6679V9.7202C31.9988 9.14854 31.5812 8.67604 31.0177 8.57454C29.0413 8.21754 27.2785 6.94704 27.2785 6.94704L27.2797 6.94587Z" fill="#1C74E9"/>
</svg>
