<svg width="36" height="36" viewBox="0 0 36 36" fill="none" xmlns="http://www.w3.org/2000/svg">
<g clip-path="url(#clip0_1016_12)">
<path d="M18 14.6948C18 14.6948 12.1667 10.5683 12.1667 7.20833C12.1667 5.43617 13.4722 4 15.0833 4C16.6945 4 18 5.43617 18 7.20833C18 5.43617 19.3055 4 20.9167 4C22.5278 4 23.8333 5.43617 23.8333 7.20833C23.8333 10.5683 18 14.6948 18 14.6948ZM19.1865 22.0682C19.9168 22.732 20.3333 23.6723 20.3333 24.6593V32H8.858L5.2215 28.0193C4.43633 27.1595 4 26.0372 4 24.8717V10.4167C4 8.70633 5.47117 7.34017 7.21767 7.51517C8.7355 7.66683 9.83333 9.0575 9.83333 10.5835V15.1965C9.83333 15.1965 8.94667 15.9152 8.77517 16.1042C7.14183 17.9032 7.07767 20.6717 8.62933 22.543L12.6392 26.5937L14.2772 24.9557L10.4937 21.1348C9.79017 20.2855 9.61633 19.0675 10.1763 18.1178C11.0385 16.6548 12.9647 16.418 14.1512 17.496L19.1877 22.0693L19.1865 22.0682ZM25.826 18.1178C24.9638 16.6548 23.0377 16.418 21.8512 17.496L19.736 19.4163L20.7557 20.3427C21.8267 21.3157 22.4648 22.6608 22.6072 24.09L25.5087 21.136C26.2122 20.2867 26.386 19.0687 25.826 18.119V18.1178ZM29.0845 7.5C27.4733 7.5 26.1678 8.8055 26.1678 10.4167V15.1953C26.1678 15.1953 27.0545 15.914 27.226 16.103C28.8593 17.902 28.9235 20.6705 27.3718 22.5418L22.6667 27.3112V32H27.142L30.7785 28.0193C31.5637 27.1595 32 26.0372 32 24.8717V10.4167C32 8.8055 30.6957 7.5 29.0845 7.5Z" fill="#1C74E9"/>
</g>
<defs>
<clipPath id="clip0_1016_12">
<rect width="28" height="28" fill="white" transform="translate(4 4)"/>
</clipPath>
</defs>
</svg>
