<svg width="36" height="36" viewBox="0 0 36 36" fill="none" xmlns="http://www.w3.org/2000/svg">
<path d="M23.5172 24.8022C24.2008 25.4858 24.2008 26.5942 23.5172 27.2767C22.8335 27.9603 21.7252 27.9603 21.0427 27.2767L15.6363 21.8703C15.1802 21.4142 14.4417 21.4142 13.9867 21.8703C13.5305 22.3265 13.5305 23.065 13.9867 23.52L18.8995 28.4328C19.5832 29.1165 19.5832 30.2248 18.8995 30.9073C18.2158 31.591 17.1075 31.591 16.425 30.9073L10.9732 25.4555C7.5245 22.0908 4 17.605 4 13.3327C4 8.82935 7.402 5.16602 11.5833 5.16602C13.6518 5.16602 15.2362 5.93835 16.4425 6.79585L12.197 11.0052C11.4247 11.7763 11 12.803 11 13.8938C11 14.9847 11.4247 16.0102 12.1947 16.7802C12.9658 17.5525 13.9913 17.9772 15.0833 17.9772C15.5803 17.9772 16.0598 17.878 16.5125 17.71L23.5183 24.8033L23.5172 24.8022ZM20.8245 13.9452L18.3838 16.3695L25.5122 23.3905C26.1958 24.0742 27.3042 24.0742 27.9867 23.3905C29.032 22.3452 28.1372 21.1878 28.1372 21.1878L20.8245 13.9452ZM24.3665 5.23368C22.4602 5.24535 20.6495 6.07368 19.2542 7.37335L13.8443 12.747C13.1607 13.4307 13.1607 14.539 13.8443 15.2215C14.528 15.9052 15.6363 15.9052 16.3188 15.2215L19.232 12.3282C20.142 11.424 21.6097 11.424 22.5208 12.3282L29.8988 19.6525C31.2883 17.4102 31.9977 15.3102 31.9977 13.4003C31.9977 8.89702 28.5467 5.23368 24.3653 5.23368H24.3665Z" fill="#1C74E9"/>
</svg>
