<svg width="134" height="45" viewBox="0 0 134 45" fill="none" xmlns="http://www.w3.org/2000/svg">
<g clip-path="url(#clip0_1114_126)">
<path d="M134 22.5C134 10.0736 123.926 0 111.5 0C99.0736 0 89 10.0736 89 22.5C89 34.9264 99.0736 45 111.5 45C123.926 45 134 34.9264 134 22.5Z" fill="#1C74E9" fill-opacity="0.15"/>
<path fill-rule="evenodd" clip-rule="evenodd" d="M104.208 18.3333C104.208 18.6096 104.099 18.8746 103.903 19.0699C103.708 19.2653 103.443 19.375 103.167 19.375C102.89 19.375 102.625 19.2653 102.43 19.0699C102.235 18.8746 102.125 18.6096 102.125 18.3333V16.1698C102.125 15.3781 102.21 14.9354 102.457 14.475C102.69 14.0385 103.039 13.6896 103.475 13.4573C103.935 13.2104 104.377 13.125 105.17 13.125H107.333C107.61 13.125 107.875 13.2347 108.07 13.4301C108.265 13.6254 108.375 13.8904 108.375 14.1667C108.375 14.4429 108.265 14.7079 108.07 14.9032C107.875 15.0986 107.61 15.2083 107.333 15.2083H105.17C104.692 15.2083 104.576 15.2312 104.457 15.2937C104.387 15.3299 104.33 15.3871 104.294 15.4573C104.231 15.575 104.208 15.6917 104.208 16.1698V18.3333ZM107.333 29.7917C107.61 29.7917 107.875 29.9014 108.07 30.0968C108.265 30.2921 108.375 30.5571 108.375 30.8333C108.375 31.1096 108.265 31.3746 108.07 31.5699C107.875 31.7653 107.61 31.875 107.333 31.875H105.17C104.378 31.875 103.935 31.7896 103.475 31.5427C103.042 31.3124 102.688 30.9581 102.457 30.525C102.21 30.0646 102.125 29.6229 102.125 28.8302V26.6667C102.125 26.3904 102.235 26.1254 102.43 25.9301C102.625 25.7347 102.89 25.625 103.167 25.625C103.443 25.625 103.708 25.7347 103.903 25.9301C104.099 26.1254 104.208 26.3904 104.208 26.6667V28.8302C104.208 29.3083 104.231 29.424 104.294 29.5427C104.333 29.6156 104.384 29.6677 104.457 29.7062C104.575 29.7687 104.692 29.7917 105.17 29.7917H107.333ZM114.625 14.1667C114.625 14.4429 114.735 14.7079 114.93 14.9032C115.125 15.0986 115.39 15.2083 115.667 15.2083H117.83C118.308 15.2083 118.424 15.2312 118.543 15.2937C118.616 15.3333 118.668 15.3844 118.706 15.4573C118.769 15.575 118.792 15.6917 118.792 16.1698V18.3333C118.792 18.6096 118.901 18.8746 119.097 19.0699C119.292 19.2653 119.557 19.375 119.833 19.375C120.11 19.375 120.375 19.2653 120.57 19.0699C120.765 18.8746 120.875 18.6096 120.875 18.3333V16.1698C120.875 15.3781 120.79 14.9354 120.543 14.475C120.312 14.0419 119.958 13.6876 119.525 13.4573C119.065 13.2104 118.623 13.125 117.83 13.125H115.667C115.39 13.125 115.125 13.2347 114.93 13.4301C114.735 13.6254 114.625 13.8904 114.625 14.1667ZM118.792 26.6667C118.792 26.3904 118.901 26.1254 119.097 25.9301C119.292 25.7347 119.557 25.625 119.833 25.625C120.11 25.625 120.375 25.7347 120.57 25.9301C120.765 26.1254 120.875 26.3904 120.875 26.6667V28.8302C120.875 29.6219 120.79 30.0646 120.543 30.525C120.312 30.958 119.958 31.3124 119.525 31.5427C119.065 31.7896 118.623 31.875 117.83 31.875H115.667C115.39 31.875 115.125 31.7653 114.93 31.5699C114.735 31.3746 114.625 31.1096 114.625 30.8333C114.625 30.5571 114.735 30.2921 114.93 30.0968C115.125 29.9014 115.39 29.7917 115.667 29.7917H117.83C118.308 29.7917 118.424 29.7687 118.543 29.7062C118.613 29.6702 118.67 29.613 118.706 29.5427C118.769 29.425 118.792 29.3083 118.792 28.8302V26.6667ZM102.125 21.4583C101.849 21.4583 101.584 21.5681 101.388 21.7634C101.193 21.9588 101.083 22.2237 101.083 22.5C101.083 22.7763 101.193 23.0412 101.388 23.2366C101.584 23.4319 101.849 23.5417 102.125 23.5417H120.875C121.151 23.5417 121.416 23.4319 121.612 23.2366C121.807 23.0412 121.917 22.7763 121.917 22.5C121.917 22.2237 121.807 21.9588 121.612 21.7634C121.416 21.5681 121.151 21.4583 120.875 21.4583H102.125Z" fill="#1C74E9"/>
</g>
<path d="M4.224 28.192C3.44533 28.192 2.736 28.0907 2.096 27.888C1.456 27.6747 0.917333 27.3973 0.48 27.056L1.248 25.776C1.632 26.096 2.064 26.3573 2.544 26.56C3.024 26.7627 3.584 26.864 4.224 26.864C4.992 26.864 5.6 26.704 6.048 26.384C6.496 26.064 6.72 25.632 6.72 25.088C6.72 24.7787 6.656 24.5067 6.528 24.272C6.4 24.0267 6.14933 23.792 5.776 23.568C5.41333 23.3333 4.87467 23.0827 4.16 22.816C3.392 22.5173 2.77867 22.2187 2.32 21.92C1.86133 21.6107 1.53067 21.264 1.328 20.88C1.136 20.4853 1.04 20.0213 1.04 19.488C1.04 18.9547 1.184 18.4747 1.472 18.048C1.77067 17.6107 2.20267 17.264 2.768 17.008C3.344 16.7413 4.03733 16.608 4.848 16.608C5.50933 16.608 6.10133 16.6773 6.624 16.816C7.15733 16.944 7.67467 17.1307 8.176 17.376L7.616 18.672C7.25333 18.4587 6.82667 18.2827 6.336 18.144C5.856 17.9947 5.34933 17.92 4.816 17.92C4.112 17.92 3.55733 18.0587 3.152 18.336C2.74667 18.6133 2.544 18.9707 2.544 19.408C2.544 19.6853 2.60267 19.9307 2.72 20.144C2.83733 20.3573 3.06667 20.5653 3.408 20.768C3.76 20.9707 4.28267 21.2 4.976 21.456C5.808 21.7653 6.464 22.0907 6.944 22.432C7.43467 22.7733 7.78133 23.1467 7.984 23.552C8.18667 23.9467 8.288 24.4 8.288 24.912C8.288 25.6053 8.112 26.1973 7.76 26.688C7.41867 27.1787 6.93867 27.552 6.32 27.808C5.712 28.064 5.01333 28.192 4.224 28.192ZM13.5738 28.192C12.7844 28.192 12.0911 28.0107 11.4938 27.648C10.9071 27.2747 10.4538 26.7627 10.1338 26.112C9.81375 25.4507 9.65375 24.6933 9.65375 23.84C9.65375 23.04 9.81375 22.3093 10.1338 21.648C10.4644 20.9867 10.9338 20.464 11.5418 20.08C12.1498 19.6853 12.8644 19.488 13.6858 19.488C14.1551 19.488 14.5658 19.5307 14.9178 19.616C15.2804 19.7013 15.6271 19.824 15.9578 19.984L15.5258 21.2C15.2271 21.0507 14.9391 20.944 14.6618 20.88C14.3951 20.8053 14.0964 20.768 13.7658 20.768C13.0191 20.768 12.3898 21.04 11.8778 21.584C11.3764 22.1173 11.1258 22.8587 11.1258 23.808C11.1258 24.384 11.2324 24.9067 11.4458 25.376C11.6591 25.8453 11.9524 26.2187 12.3258 26.496C12.7098 26.7733 13.1578 26.912 13.6698 26.912C14.0751 26.912 14.4218 26.8693 14.7098 26.784C14.9978 26.688 15.3071 26.5547 15.6378 26.384L16.0858 27.6C15.7551 27.7813 15.3818 27.9253 14.9658 28.032C14.5604 28.1387 14.0964 28.192 13.5738 28.192ZM20.6284 28.192C19.935 28.192 19.3057 28.016 18.7404 27.664C18.175 27.312 17.7217 26.816 17.3804 26.176C17.0497 25.5253 16.8844 24.7627 16.8844 23.888C16.8844 23.056 17.0497 22.3093 17.3804 21.648C17.7217 20.9867 18.1857 20.464 18.7724 20.08C19.3697 19.6853 20.0524 19.488 20.8204 19.488C21.3004 19.488 21.7324 19.5733 22.1164 19.744C22.511 19.904 22.8524 20.1067 23.1404 20.352V19.68H24.4524V25.984C24.4524 26.3893 24.5484 26.656 24.7404 26.784C24.943 26.9013 25.1617 26.96 25.3964 26.96L25.0924 28.08C24.0684 28.08 23.4497 27.664 23.2364 26.832C22.991 27.1733 22.655 27.488 22.2284 27.776C21.8124 28.0533 21.279 28.192 20.6284 28.192ZM20.9484 26.912C21.3537 26.912 21.7377 26.816 22.1004 26.624C22.463 26.4213 22.767 26.1707 23.0124 25.872V21.408C22.7244 21.2053 22.4044 21.0453 22.0524 20.928C21.711 20.8 21.3484 20.736 20.9644 20.736C20.4524 20.736 19.999 20.8693 19.6044 21.136C19.2204 21.392 18.9164 21.7547 18.6924 22.224C18.4684 22.6827 18.3564 23.2213 18.3564 23.84C18.3564 24.4373 18.4684 24.9707 18.6924 25.44C18.9164 25.8987 19.2257 26.2613 19.6204 26.528C20.015 26.784 20.4577 26.912 20.9484 26.912ZM27.1594 28V19.68H28.5514V21.072C28.85 20.624 29.2287 20.2507 29.6874 19.952C30.1567 19.6427 30.7114 19.488 31.3514 19.488C32.29 19.488 32.9887 19.7707 33.4474 20.336C33.9167 20.9013 34.1514 21.648 34.1514 22.576V28H32.7114V22.736C32.7114 22.1387 32.5674 21.6587 32.2794 21.296C32.002 20.9333 31.6127 20.752 31.1114 20.752C30.6207 20.752 30.1567 20.928 29.7194 21.28C29.282 21.6213 28.9087 22.0267 28.5994 22.496V28H27.1594ZM41.265 28V16.8H42.785V21.584H48.305V16.8H49.825V28H48.305V22.896H42.785V28H41.265ZM55.7105 28.192C54.5158 28.192 53.5665 27.8133 52.8625 27.056C52.1692 26.288 51.8225 25.216 51.8225 23.84C51.8225 23.008 51.9772 22.2667 52.2865 21.616C52.6065 20.9547 53.0492 20.4373 53.6145 20.064C54.1798 19.68 54.8358 19.488 55.5825 19.488C56.3825 19.488 57.0438 19.664 57.5665 20.016C58.0998 20.3573 58.4998 20.8213 58.7665 21.408C59.0332 21.9947 59.1665 22.64 59.1665 23.344C59.1665 23.7173 59.1505 24.08 59.1185 24.432H53.2945C53.3905 25.2107 53.6625 25.8187 54.1105 26.256C54.5585 26.6933 55.1505 26.912 55.8865 26.912C56.3665 26.912 56.7985 26.864 57.1825 26.768C57.5665 26.6613 57.9345 26.528 58.2865 26.368L58.6225 27.6C58.2385 27.7707 57.8065 27.9093 57.3265 28.016C56.8465 28.1333 56.3078 28.192 55.7105 28.192ZM53.2785 23.264H57.8385C57.8385 22.4533 57.6358 21.8293 57.2305 21.392C56.8252 20.9547 56.2652 20.736 55.5505 20.736C54.9318 20.736 54.4198 20.9547 54.0145 21.392C53.6092 21.8187 53.3638 22.4427 53.2785 23.264ZM60.9256 28V19.68H62.3176V21.488C62.4563 21.136 62.643 20.8107 62.8776 20.512C63.1123 20.2027 63.4056 19.9573 63.7576 19.776C64.1096 19.584 64.5203 19.488 64.9896 19.488C65.1496 19.488 65.3096 19.4987 65.4696 19.52C65.6296 19.5307 65.763 19.552 65.8696 19.584L65.4376 21.072C65.235 20.9867 64.995 20.944 64.7176 20.944C64.323 20.944 63.9443 21.056 63.5816 21.28C63.2296 21.504 62.9363 21.8507 62.7016 22.32C62.4776 22.7893 62.3656 23.3867 62.3656 24.112V28H60.9256ZM69.9999 28.192C68.8052 28.192 67.8559 27.8133 67.1519 27.056C66.4585 26.288 66.1119 25.216 66.1119 23.84C66.1119 23.008 66.2665 22.2667 66.5759 21.616C66.8959 20.9547 67.3385 20.4373 67.9039 20.064C68.4692 19.68 69.1252 19.488 69.8719 19.488C70.6719 19.488 71.3332 19.664 71.8559 20.016C72.3892 20.3573 72.7892 20.8213 73.0559 21.408C73.3225 21.9947 73.4559 22.64 73.4559 23.344C73.4559 23.7173 73.4399 24.08 73.4079 24.432H67.5839C67.6799 25.2107 67.9519 25.8187 68.3999 26.256C68.8479 26.6933 69.4399 26.912 70.1759 26.912C70.6559 26.912 71.0879 26.864 71.4719 26.768C71.8559 26.6613 72.2239 26.528 72.5759 26.368L72.9119 27.6C72.5279 27.7707 72.0959 27.9093 71.6159 28.016C71.1359 28.1333 70.5972 28.192 69.9999 28.192ZM67.5679 23.264H72.1279C72.1279 22.4533 71.9252 21.8293 71.5199 21.392C71.1145 20.9547 70.5545 20.736 69.8399 20.736C69.2212 20.736 68.7092 20.9547 68.3039 21.392C67.8985 21.8187 67.6532 22.4427 67.5679 23.264ZM75.839 24.688L75.631 20.32V16.336H77.231V20.32L77.023 24.688H75.839ZM76.447 28.192C76.159 28.192 75.9083 28.0853 75.695 27.872C75.4817 27.6587 75.375 27.408 75.375 27.12C75.375 26.7893 75.471 26.528 75.663 26.336C75.855 26.144 76.1163 26.048 76.447 26.048C76.7243 26.048 76.9697 26.1547 77.183 26.368C77.407 26.5813 77.519 26.832 77.519 27.12C77.519 27.44 77.4177 27.7013 77.215 27.904C77.0123 28.096 76.7563 28.192 76.447 28.192Z" fill="#1C74E9"/>
<path d="M2.096 27.888L2.01693 28.1252L2.02053 28.1263L2.096 27.888ZM0.48 27.056L0.265627 26.9274L0.151846 27.117L0.326182 27.2531L0.48 27.056ZM1.248 25.776L1.40805 25.5839L1.18381 25.3971L1.03363 25.6474L1.248 25.776ZM6.048 26.384L6.19331 26.5874L6.19331 26.5874L6.048 26.384ZM6.528 24.272L6.30632 24.3877L6.30853 24.3917L6.528 24.272ZM5.776 23.568L5.64011 23.778L5.64738 23.7824L5.776 23.568ZM4.16 22.816L4.06938 23.049L4.0726 23.0502L4.16 22.816ZM2.32 21.92L2.1802 22.1273L2.18358 22.1295L2.32 21.92ZM1.328 20.88L1.10307 20.9894L1.1069 20.9967L1.328 20.88ZM1.472 18.048L1.26555 17.907L1.26479 17.9081L1.472 18.048ZM2.768 17.008L2.87113 17.2357L2.87303 17.2349L2.768 17.008ZM6.624 16.816L6.55987 17.0577L6.56566 17.0591L6.624 16.816ZM8.176 17.376L8.40549 17.4752L8.50008 17.2563L8.28589 17.1514L8.176 17.376ZM7.616 18.672L7.48924 18.8875L7.73322 19.031L7.84549 18.7712L7.616 18.672ZM6.336 18.144L6.26171 18.3828L6.26801 18.3846L6.336 18.144ZM2.72 20.144L2.50095 20.2645L2.50095 20.2645L2.72 20.144ZM3.408 20.768L3.28035 20.983L3.28326 20.9847L3.408 20.768ZM4.976 21.456L5.06312 21.2217L5.06259 21.2215L4.976 21.456ZM6.944 22.432L6.79911 22.6357L6.80123 22.6372L6.944 22.432ZM7.984 23.552L7.76038 23.6638L7.76161 23.6662L7.984 23.552ZM7.76 26.688L7.55684 26.5423L7.55477 26.5452L7.76 26.688ZM6.32 27.808L6.22441 27.577L6.22299 27.5776L6.32 27.808ZM4.224 27.942C3.46694 27.942 2.78352 27.8435 2.17147 27.6497L2.02053 28.1263C2.68848 28.3379 3.42373 28.442 4.224 28.442V27.942ZM2.17506 27.6508C1.55643 27.4446 1.04444 27.1794 0.633818 26.8589L0.326182 27.2531C0.790226 27.6153 1.35557 27.9047 2.01694 28.1252L2.17506 27.6508ZM0.694373 27.1846L1.46237 25.9046L1.03363 25.6474L0.265627 26.9274L0.694373 27.1846ZM1.08795 25.9681C1.49168 26.3045 1.94502 26.5785 2.44676 26.7903L2.64124 26.3297C2.18298 26.1362 1.77232 25.8875 1.40805 25.5839L1.08795 25.9681ZM2.44676 26.7903C2.9637 27.0086 3.55801 27.114 4.224 27.114V26.614C3.60999 26.614 3.0843 26.5168 2.64124 26.3297L2.44676 26.7903ZM4.224 27.114C5.02411 27.114 5.68912 26.9476 6.19331 26.5874L5.90269 26.1806C5.51088 26.4604 4.95989 26.614 4.224 26.614V27.114ZM6.19331 26.5874C6.70607 26.2212 6.97 25.7139 6.97 25.088H6.47C6.47 25.5501 6.28593 25.9068 5.90269 26.1806L6.19331 26.5874ZM6.97 25.088C6.97 24.7435 6.89845 24.4291 6.74747 24.1523L6.30853 24.3917C6.41355 24.5843 6.47 24.8139 6.47 25.088H6.97ZM6.74965 24.1564C6.59141 23.8531 6.29679 23.5889 5.90462 23.3536L5.64738 23.7824C6.00188 23.9951 6.20859 24.2003 6.30635 24.3876L6.74965 24.1564ZM5.91181 23.3581C5.52662 23.1089 4.96825 22.8507 4.2474 22.5818L4.0726 23.0502C4.78109 23.3146 5.30005 23.5578 5.64019 23.7779L5.91181 23.3581ZM4.25061 22.583C3.49147 22.2878 2.89539 21.9963 2.45642 21.7105L2.18358 22.1295C2.66194 22.441 3.29253 22.7469 4.06939 23.049L4.25061 22.583ZM2.45979 21.7127C2.02613 21.4203 1.72798 21.1022 1.5491 20.7633L1.1069 20.9967C1.33336 21.4258 1.69653 21.8011 2.18021 22.1273L2.45979 21.7127ZM1.55281 20.7706C1.38057 20.4166 1.29 19.9915 1.29 19.488H0.79C0.79 20.0512 0.891429 20.5541 1.10319 20.9894L1.55281 20.7706ZM1.29 19.488C1.29 19.0026 1.42015 18.5717 1.67921 18.1879L1.26479 17.9081C0.947853 18.3777 0.79 18.9067 0.79 19.488H1.29ZM1.67845 18.189C1.94712 17.7956 2.34027 17.4761 2.87113 17.2357L2.66487 16.7803C2.06507 17.0519 1.59421 17.4258 1.26555 17.907L1.67845 18.189ZM2.87303 17.2349C3.40832 16.987 4.0639 16.858 4.848 16.858V16.358C4.01076 16.358 3.27968 16.4956 2.66297 16.7811L2.87303 17.2349ZM4.848 16.858C5.49231 16.858 6.06218 16.9256 6.55989 17.0576L6.68811 16.5744C6.14049 16.4291 5.52636 16.358 4.848 16.358V16.858ZM6.56566 17.0591C7.08087 17.1827 7.58094 17.3631 8.06611 17.6006L8.28589 17.1514C7.7684 16.8982 7.2338 16.7053 6.68234 16.5729L6.56566 17.0591ZM7.94651 17.2768L7.38651 18.5728L7.84549 18.7712L8.40549 17.4752L7.94651 17.2768ZM7.74276 18.4565C7.35825 18.2303 6.91106 18.0467 6.40399 17.9034L6.26801 18.3846C6.74228 18.5186 7.14842 18.687 7.48924 18.8875L7.74276 18.4565ZM6.41027 17.9053C5.9048 17.748 5.37298 17.67 4.816 17.67V18.17C5.32569 18.17 5.8072 18.2413 6.26173 18.3827L6.41027 17.9053ZM4.816 17.67C4.08252 17.67 3.47218 17.814 3.01083 18.1297L3.29317 18.5423C3.64249 18.3033 4.14148 18.17 4.816 18.17V17.67ZM3.01083 18.1297C2.54717 18.4469 2.294 18.877 2.294 19.408H2.794C2.794 19.0644 2.94617 18.7798 3.29317 18.5423L3.01083 18.1297ZM2.294 19.408C2.294 19.7215 2.36063 20.0094 2.50095 20.2645L2.93905 20.0235C2.8447 19.852 2.794 19.6491 2.794 19.408H2.294ZM2.50095 20.2645C2.64933 20.5343 2.92236 20.7704 3.28037 20.983L3.53563 20.553C3.21098 20.3603 3.02534 20.1804 2.93905 20.0235L2.50095 20.2645ZM3.28326 20.9847C3.65354 21.1978 4.19171 21.4329 4.88941 21.6905L5.06259 21.2215C4.37363 20.9671 3.86646 20.7435 3.53274 20.5513L3.28326 20.9847ZM4.88888 21.6903C5.70962 21.9955 6.34352 22.3118 6.79912 22.6357L7.08888 22.2283C6.58448 21.8696 5.90638 21.5352 5.06312 21.2217L4.88888 21.6903ZM6.80123 22.6372C7.26814 22.962 7.58146 23.3059 7.76039 23.6638L8.20761 23.4402C7.98121 22.9874 7.60119 22.5846 7.08677 22.2268L6.80123 22.6372ZM7.76161 23.6662C7.94352 24.0204 8.038 24.4336 8.038 24.912H8.538C8.538 24.3664 8.42981 23.8729 8.20639 23.4378L7.76161 23.6662ZM8.038 24.912C8.038 25.5611 7.87402 26.1002 7.55687 26.5423L7.96313 26.8337C8.34998 26.2945 8.538 25.6496 8.538 24.912H8.038ZM7.55477 26.5452C7.24399 26.992 6.80432 27.337 6.22441 27.577L6.41559 28.039C7.07301 27.767 7.59335 27.3653 7.96523 26.8308L7.55477 26.5452ZM6.22299 27.5776C5.6511 27.8184 4.98643 27.942 4.224 27.942V28.442C5.04024 28.442 5.7729 28.3096 6.41701 28.0384L6.22299 27.5776ZM11.4938 27.648L11.3595 27.859L11.364 27.8617L11.4938 27.648ZM10.1338 26.112L9.90871 26.2209L9.90941 26.2223L10.1338 26.112ZM10.1338 21.648L9.91012 21.5362L9.90871 21.5391L10.1338 21.648ZM11.5418 20.08L11.6753 20.2914L11.6779 20.2897L11.5418 20.08ZM14.9178 19.616L14.8588 19.859L14.8605 19.8594L14.9178 19.616ZM15.9578 19.984L16.1933 20.0677L16.2683 19.8566L16.0666 19.759L15.9578 19.984ZM15.5258 21.2L15.4139 21.4236L15.6667 21.55L15.7613 21.2837L15.5258 21.2ZM14.6618 20.88L14.5943 21.121L14.6055 21.1236L14.6618 20.88ZM11.8778 21.584L11.6957 21.4127L11.6956 21.4128L11.8778 21.584ZM12.3258 26.496L12.1767 26.6967L12.1794 26.6987L12.3258 26.496ZM14.7098 26.784L14.7808 27.0238L14.7888 27.0212L14.7098 26.784ZM15.6378 26.384L15.8723 26.2976L15.7745 26.0321L15.5231 26.1618L15.6378 26.384ZM16.0858 27.6L16.206 27.8192L16.3948 27.7157L16.3203 27.5136L16.0858 27.6ZM14.9658 28.032L14.9037 27.7898L14.9021 27.7902L14.9658 28.032ZM13.5738 27.942C12.8241 27.942 12.1768 27.7703 11.6235 27.4343L11.364 27.8617C12.0053 28.2511 12.7447 28.442 13.5738 28.442V27.942ZM11.628 27.4371C11.0817 27.0895 10.6588 26.613 10.3581 26.0017L9.90941 26.2223C10.2487 26.9123 10.7325 27.4599 11.3595 27.8589L11.628 27.4371ZM10.3588 26.0031C10.0577 25.3808 9.90375 24.6617 9.90375 23.84H9.40375C9.40375 24.725 9.56983 25.5205 9.90871 26.2209L10.3588 26.0031ZM9.90375 23.84C9.90375 23.0743 10.0566 22.3813 10.3588 21.7569L9.90871 21.5391C9.57086 22.2373 9.40375 23.0057 9.40375 23.84H9.90375ZM10.3574 21.7598C10.6682 21.138 11.1069 20.6503 11.6752 20.2914L11.4083 19.8686C10.7606 20.2777 10.2606 20.8353 9.91014 21.5362L10.3574 21.7598ZM11.6779 20.2897C12.2401 19.9247 12.9061 19.738 13.6858 19.738V19.238C12.8227 19.238 12.0594 19.4459 11.4056 19.8703L11.6779 20.2897ZM13.6858 19.738C14.1407 19.738 14.5308 19.7794 14.8589 19.859L14.9767 19.373C14.6007 19.2819 14.1694 19.238 13.6858 19.238V19.738ZM14.8605 19.8594C15.2056 19.9406 15.5349 20.0571 15.8489 20.209L16.0666 19.759C15.7193 19.5909 15.3553 19.4621 14.975 19.3726L14.8605 19.8594ZM15.7222 19.9003L15.2902 21.1163L15.7613 21.2837L16.1933 20.0677L15.7222 19.9003ZM15.6376 20.9764C15.3242 20.8197 15.0175 20.7055 14.718 20.6364L14.6055 21.1236C14.8606 21.1825 15.13 21.2816 15.4139 21.4236L15.6376 20.9764ZM14.7292 20.6393C14.4368 20.5574 14.1149 20.518 13.7658 20.518V21.018C14.0779 21.018 14.3534 21.0533 14.5943 21.1207L14.7292 20.6393ZM13.7658 20.518C12.9501 20.518 12.2549 20.8185 11.6957 21.4127L12.0598 21.7553C12.5246 21.2615 13.0881 21.018 13.7658 21.018V20.518ZM11.6956 21.4128C11.1389 22.005 10.8758 22.8146 10.8758 23.808H11.3758C11.3758 22.9028 11.6139 22.2297 12.0599 21.7552L11.6956 21.4128ZM10.8758 23.808C10.8758 24.4155 10.9884 24.974 11.2182 25.4795L11.6733 25.2725C11.4764 24.8393 11.3758 24.3525 11.3758 23.808H10.8758ZM11.2182 25.4795C11.4471 25.983 11.7658 26.3915 12.1767 26.6967L12.4748 26.2953C12.1391 26.0459 11.8711 25.7076 11.6733 25.2725L11.2182 25.4795ZM12.1794 26.6987C12.6095 27.0093 13.1097 27.162 13.6698 27.162V26.662C13.2058 26.662 12.81 26.5374 12.4721 26.2933L12.1794 26.6987ZM13.6698 27.162C14.0913 27.162 14.4633 27.1178 14.7808 27.0237L14.6387 26.5443C14.3802 26.6209 14.0588 26.662 13.6698 26.662V27.162ZM14.7888 27.0212C15.0914 26.9203 15.4127 26.7815 15.7524 26.6062L15.5231 26.1618C15.2014 26.3279 14.9041 26.4557 14.6307 26.5468L14.7888 27.0212ZM15.4032 26.4704L15.8512 27.6864L16.3203 27.5136L15.8723 26.2976L15.4032 26.4704ZM15.9655 27.3808C15.6555 27.5508 15.3021 27.6877 14.9037 27.7898L15.0278 28.2742C15.4614 28.163 15.8546 28.0119 16.206 27.8192L15.9655 27.3808ZM14.9021 27.7902C14.5219 27.8903 14.08 27.942 13.5738 27.942V28.442C14.1128 28.442 14.5989 28.387 15.0294 28.2738L14.9021 27.7902ZM18.7404 27.664L18.8725 27.4518L18.8725 27.4518L18.7404 27.664ZM17.3804 26.176L17.1575 26.2893L17.1598 26.2936L17.3804 26.176ZM17.3804 21.648L17.1582 21.5333L17.1568 21.5362L17.3804 21.648ZM18.7724 20.08L18.9093 20.2892L18.9102 20.2886L18.7724 20.08ZM22.1164 19.744L22.0148 19.9726L22.0224 19.9757L22.1164 19.744ZM23.1404 20.352L22.9783 20.5423L23.3904 20.8934V20.352H23.1404ZM23.1404 19.68V19.43H22.8904V19.68H23.1404ZM24.4524 19.68H24.7024V19.43H24.4524V19.68ZM24.7404 26.784L24.6017 26.992L24.6083 26.9964L24.6151 27.0004L24.7404 26.784ZM25.3964 26.96L25.6376 27.0255L25.7233 26.71H25.3964V26.96ZM25.0924 28.08V28.33H25.2836L25.3336 28.1455L25.0924 28.08ZM23.2364 26.832L23.4785 26.7699L23.3456 26.2516L23.0334 26.6861L23.2364 26.832ZM22.2284 27.776L22.3671 27.984L22.3682 27.9832L22.2284 27.776ZM22.1004 26.624L22.2174 26.845L22.2223 26.8422L22.1004 26.624ZM23.0124 25.872L23.2056 26.0307L23.2624 25.9615V25.872H23.0124ZM23.0124 21.408H23.2624V21.2782L23.1562 21.2035L23.0124 21.408ZM22.0524 20.928L21.9645 21.1622L21.9733 21.1652L22.0524 20.928ZM19.6044 21.136L19.7431 21.344L19.7443 21.3431L19.6044 21.136ZM18.6924 22.224L18.917 22.3337L18.918 22.3317L18.6924 22.224ZM18.6924 25.44L18.4667 25.5477L18.4677 25.5497L18.6924 25.44ZM19.6204 26.528L19.4804 26.7352L19.4843 26.7377L19.6204 26.528ZM20.6284 27.942C19.9797 27.942 19.3965 27.778 18.8725 27.4518L18.6082 27.8762C19.2149 28.254 19.8903 28.442 20.6284 28.442V27.942ZM18.8725 27.4518C18.3477 27.125 17.9235 26.6632 17.601 26.0584L17.1598 26.2936C17.5199 26.9688 18.0023 27.499 18.6082 27.8762L18.8725 27.4518ZM17.6032 26.0627C17.2936 25.4535 17.1344 24.731 17.1344 23.888H16.6344C16.6344 24.7943 16.8058 25.5972 17.1575 26.2893L17.6032 26.0627ZM17.1344 23.888C17.1344 23.0899 17.2927 22.3823 17.604 21.7598L17.1568 21.5362C16.8067 22.2364 16.6344 23.0221 16.6344 23.888H17.1344ZM17.6025 21.7627C17.9253 21.1372 18.3609 20.6481 18.9093 20.2892L18.6355 19.8708C18.0105 20.2799 17.5181 20.8361 17.1582 21.5333L17.6025 21.7627ZM18.9102 20.2886C19.4636 19.9229 20.0976 19.738 20.8204 19.738V19.238C20.0071 19.238 19.2758 19.4477 18.6346 19.8714L18.9102 20.2886ZM20.8204 19.738C21.2704 19.738 21.667 19.8179 22.0148 19.9725L22.2179 19.5155C21.7977 19.3288 21.3304 19.238 20.8204 19.238V19.738ZM22.0224 19.9757C22.3954 20.1269 22.713 20.3164 22.9783 20.5423L23.3025 20.1617C22.9917 19.897 22.6267 19.6811 22.2103 19.5123L22.0224 19.9757ZM23.3904 20.352V19.68H22.8904V20.352H23.3904ZM23.1404 19.93H24.4524V19.43H23.1404V19.93ZM24.2024 19.68V25.984H24.7024V19.68H24.2024ZM24.2024 25.984C24.2024 26.4105 24.3007 26.7913 24.6017 26.992L24.8791 26.576C24.7961 26.5207 24.7024 26.3682 24.7024 25.984H24.2024ZM24.6151 27.0004C24.8559 27.1398 25.1178 27.21 25.3964 27.21V26.71C25.2056 26.71 25.0302 26.6629 24.8656 26.5676L24.6151 27.0004ZM25.1551 26.8945L24.8511 28.0145L25.3336 28.1455L25.6376 27.0255L25.1551 26.8945ZM25.0924 27.83C24.6121 27.83 24.2552 27.7322 23.9999 27.5605C23.7491 27.3919 23.5724 27.1361 23.4785 26.7699L22.9942 26.8941C23.1136 27.3599 23.353 27.7281 23.7209 27.9755C24.0842 28.2198 24.5487 28.33 25.0924 28.33V27.83ZM23.0334 26.6861C22.8087 26.9987 22.496 27.2937 22.0885 27.5688L22.3682 27.9832C22.8141 27.6823 23.1734 27.348 23.4394 26.9779L23.0334 26.6861ZM22.0897 27.568C21.7255 27.8108 21.2444 27.942 20.6284 27.942V28.442C21.3137 28.442 21.8993 28.2959 22.3671 27.984L22.0897 27.568ZM20.9484 27.162C21.395 27.162 21.8191 27.0558 22.2173 26.8449L21.9834 26.4031C21.6563 26.5762 21.3124 26.662 20.9484 26.662V27.162ZM22.2223 26.8422C22.6102 26.6255 22.939 26.3552 23.2056 26.0307L22.8192 25.7133C22.5951 25.9861 22.3159 26.2172 21.9784 26.4058L22.2223 26.8422ZM23.2624 25.872V21.408H22.7624V25.872H23.2624ZM23.1562 21.2035C22.8473 20.9861 22.5053 20.8154 22.1314 20.6908L21.9733 21.1652C22.3035 21.2752 22.6014 21.4245 22.8685 21.6125L23.1562 21.2035ZM22.1402 20.6939C21.7693 20.5548 21.3767 20.486 20.9644 20.486V20.986C21.32 20.986 21.6528 21.0452 21.9646 21.1621L22.1402 20.6939ZM20.9644 20.486C20.4064 20.486 19.9035 20.6321 19.4644 20.9289L19.7443 21.3431C20.0945 21.1065 20.4983 20.986 20.9644 20.986V20.486ZM19.4657 20.928C19.0396 21.212 18.7076 21.6116 18.4668 22.1163L18.918 22.3317C19.1251 21.8977 19.4011 21.572 19.7431 21.344L19.4657 20.928ZM18.4677 22.1143C18.2239 22.6136 18.1064 23.1913 18.1064 23.84H18.6064C18.6064 23.2514 18.7129 22.7517 18.917 22.3337L18.4677 22.1143ZM18.1064 23.84C18.1064 24.4691 18.2245 25.0401 18.4668 25.5477L18.918 25.3323C18.7123 24.9013 18.6064 24.4056 18.6064 23.84H18.1064ZM18.4677 25.5497C18.7095 26.0448 19.0469 26.4422 19.4804 26.7351L19.7603 26.3209C19.4045 26.0804 19.1232 25.7525 18.917 25.3303L18.4677 25.5497ZM19.4843 26.7377C19.9213 27.0212 20.4116 27.162 20.9484 27.162V26.662C20.5038 26.662 20.1088 26.5468 19.7564 26.3183L19.4843 26.7377ZM27.1594 28H26.9094V28.25H27.1594V28ZM27.1594 19.68V19.43H26.9094V19.68H27.1594ZM28.5514 19.68H28.8014V19.43H28.5514V19.68ZM28.5514 21.072H28.3014V21.8977L28.7594 21.2107L28.5514 21.072ZM29.6874 19.952L29.8238 20.1615L29.825 20.1607L29.6874 19.952ZM33.4474 20.336L33.2532 20.4935L33.255 20.4957L33.4474 20.336ZM34.1514 28V28.25H34.4014V28H34.1514ZM32.7114 28H32.4614V28.25H32.7114V28ZM32.2794 21.296L32.0808 21.4479L32.0836 21.4515L32.2794 21.296ZM29.7194 21.28L29.8732 21.4771L29.8761 21.4748L29.7194 21.28ZM28.5994 22.496L28.3906 22.3584L28.3494 22.421V22.496H28.5994ZM28.5994 28V28.25H28.8494V28H28.5994ZM27.4094 28V19.68H26.9094V28H27.4094ZM27.1594 19.93H28.5514V19.43H27.1594V19.93ZM28.3014 19.68V21.072H28.8014V19.68H28.3014ZM28.7594 21.2107C29.0389 20.7914 29.3931 20.442 29.8238 20.1615L29.551 19.7425C29.0644 20.0594 28.6612 20.4566 28.3434 20.9333L28.7594 21.2107ZM29.825 20.1607C30.248 19.8819 30.7533 19.738 31.3514 19.738V19.238C30.6694 19.238 30.0654 19.4034 29.5498 19.7433L29.825 20.1607ZM31.3514 19.738C32.2383 19.738 32.8551 20.0028 33.2532 20.4935L33.6415 20.1785C33.1223 19.5385 32.3418 19.238 31.3514 19.238V19.738ZM33.255 20.4957C33.6782 21.0054 33.9014 21.6906 33.9014 22.576H34.4014C34.4014 21.6054 34.1553 20.7973 33.6397 20.1763L33.255 20.4957ZM33.9014 22.576V28H34.4014V22.576H33.9014ZM34.1514 27.75H32.7114V28.25H34.1514V27.75ZM32.9614 28V22.736H32.4614V28H32.9614ZM32.9614 22.736C32.9614 22.0988 32.8073 21.5588 32.4752 21.1405L32.0836 21.4515C32.3274 21.7585 32.4614 22.1786 32.4614 22.736H32.9614ZM32.478 21.1441C32.1482 20.713 31.6818 20.502 31.1114 20.502V21.002C31.5436 21.002 31.8558 21.1537 32.0808 21.4479L32.478 21.1441ZM31.1114 20.502C30.5556 20.502 30.0376 20.7029 29.5626 21.0852L29.8761 21.4748C30.2758 21.1531 30.6858 21.002 31.1114 21.002V20.502ZM29.5656 21.0829C29.1065 21.4412 28.7147 21.8667 28.3906 22.3584L28.8081 22.6336C29.1027 22.1866 29.4576 21.8015 29.8732 21.4771L29.5656 21.0829ZM28.3494 22.496V28H28.8494V22.496H28.3494ZM28.5994 27.75H27.1594V28.25H28.5994V27.75ZM41.265 28H41.015V28.25H41.265V28ZM41.265 16.8V16.55H41.015V16.8H41.265ZM42.785 16.8H43.035V16.55H42.785V16.8ZM42.785 21.584H42.535V21.834H42.785V21.584ZM48.305 21.584V21.834H48.555V21.584H48.305ZM48.305 16.8V16.55H48.055V16.8H48.305ZM49.825 16.8H50.075V16.55H49.825V16.8ZM49.825 28V28.25H50.075V28H49.825ZM48.305 28H48.055V28.25H48.305V28ZM48.305 22.896H48.555V22.646H48.305V22.896ZM42.785 22.896V22.646H42.535V22.896H42.785ZM42.785 28V28.25H43.035V28H42.785ZM41.515 28V16.8H41.015V28H41.515ZM41.265 17.05H42.785V16.55H41.265V17.05ZM42.535 16.8V21.584H43.035V16.8H42.535ZM42.785 21.834H48.305V21.334H42.785V21.834ZM48.555 21.584V16.8H48.055V21.584H48.555ZM48.305 17.05H49.825V16.55H48.305V17.05ZM49.575 16.8V28H50.075V16.8H49.575ZM49.825 27.75H48.305V28.25H49.825V27.75ZM48.555 28V22.896H48.055V28H48.555ZM48.305 22.646H42.785V23.146H48.305V22.646ZM42.535 22.896V28H43.035V22.896H42.535ZM42.785 27.75H41.265V28.25H42.785V27.75ZM52.8625 27.056L52.6769 27.2235L52.6794 27.2262L52.8625 27.056ZM52.2865 21.616L52.0615 21.5071L52.0607 21.5087L52.2865 21.616ZM53.6145 20.064L53.7523 20.2726L53.755 20.2708L53.6145 20.064ZM57.5665 20.016L57.4268 20.2234L57.4317 20.2266L57.5665 20.016ZM58.7665 21.408L58.9941 21.3045L58.9941 21.3045L58.7665 21.408ZM59.1185 24.432V24.682H59.3468L59.3675 24.4546L59.1185 24.432ZM53.2945 24.432V24.182H53.0118L53.0464 24.4626L53.2945 24.432ZM57.1825 26.768L57.2432 27.0106L57.2494 27.0089L57.1825 26.768ZM58.2865 26.368L58.5277 26.3022L58.4504 26.0189L58.1831 26.1404L58.2865 26.368ZM58.6225 27.6L58.724 27.8285L58.9202 27.7413L58.8637 27.5342L58.6225 27.6ZM57.3265 28.016L57.2723 27.7719L57.2671 27.7732L57.3265 28.016ZM53.2785 23.264L53.0298 23.2382L53.0012 23.514H53.2785V23.264ZM57.8385 23.264V23.514H58.0885V23.264H57.8385ZM57.2305 21.392L57.0471 21.5619L57.0471 21.5619L57.2305 21.392ZM54.0145 21.392L54.1958 21.5642L54.1979 21.5619L54.0145 21.392ZM55.7105 27.942C54.5735 27.942 53.6948 27.5842 53.0456 26.8858L52.6794 27.2262C53.4382 28.0425 54.4582 28.442 55.7105 28.442V27.942ZM53.0481 26.8885C52.4083 26.1798 52.0725 25.1749 52.0725 23.84H51.5725C51.5725 25.2571 51.93 26.3962 52.6769 27.2235L53.0481 26.8885ZM52.0725 23.84C52.0725 23.0394 52.2212 22.3356 52.5123 21.7233L52.0607 21.5087C51.7331 22.1977 51.5725 22.9766 51.5725 23.84H52.0725ZM52.5115 21.7249C52.8137 21.1005 53.2276 20.6191 53.7523 20.2726L53.4767 19.8554C52.8707 20.2556 52.3993 20.8088 52.0615 21.5071L52.5115 21.7249ZM53.755 20.2708C54.275 19.9176 54.8811 19.738 55.5825 19.738V19.238C54.7906 19.238 54.0846 19.4424 53.474 19.8572L53.755 20.2708ZM55.5825 19.738C56.3461 19.738 56.9553 19.9058 57.4269 20.2234L57.7062 19.8086C57.1324 19.4222 56.4189 19.238 55.5825 19.238V19.738ZM57.4317 20.2266C57.9237 20.5414 58.2918 20.9679 58.5389 21.5115L58.9941 21.3045C58.7078 20.6748 58.276 20.1733 57.7013 19.8054L57.4317 20.2266ZM58.5389 21.5115C58.7895 22.0627 58.9165 22.6724 58.9165 23.344H59.4165C59.4165 22.6076 59.2768 21.9266 58.9941 21.3045L58.5389 21.5115ZM58.9165 23.344C58.9165 23.7102 58.9008 24.0653 58.8695 24.4094L59.3675 24.4546C59.4002 24.0947 59.4165 23.7245 59.4165 23.344H58.9165ZM59.1185 24.182H53.2945V24.682H59.1185V24.182ZM53.0464 24.4626C53.1475 25.283 53.4378 25.9487 53.9359 26.4349L54.2851 26.0771C53.8872 25.6886 53.6335 25.1383 53.5426 24.4014L53.0464 24.4626ZM53.9359 26.4349C54.4387 26.9257 55.0975 27.162 55.8865 27.162V26.662C55.2035 26.662 54.6783 26.4609 54.2851 26.0771L53.9359 26.4349ZM55.8865 27.162C56.3828 27.162 56.8356 27.1124 57.2431 27.0105L57.1219 26.5255C56.7614 26.6156 56.3502 26.662 55.8865 26.662V27.162ZM57.2494 27.0089C57.6455 26.8988 58.0258 26.7611 58.39 26.5956L58.1831 26.1404C57.8432 26.2949 57.4875 26.4238 57.1156 26.5271L57.2494 27.0089ZM58.0453 26.4338L58.3813 27.6658L58.8637 27.5342L58.5277 26.3022L58.0453 26.4338ZM58.521 27.3715C58.1545 27.5344 57.7387 27.6683 57.2723 27.772L57.3807 28.26C57.8743 28.1504 58.3225 28.0069 58.724 27.8285L58.521 27.3715ZM57.2671 27.7732C56.8101 27.8849 56.2918 27.942 55.7105 27.942V28.442C56.3238 28.442 56.8829 28.3818 57.3859 28.2588L57.2671 27.7732ZM53.2785 23.514H57.8385V23.014H53.2785V23.514ZM58.0885 23.264C58.0885 22.4133 57.8754 21.7201 57.4139 21.2221L57.0471 21.5619C57.3962 21.9386 57.5885 22.4934 57.5885 23.264H58.0885ZM57.4139 21.2221C56.9519 20.7236 56.3198 20.486 55.5505 20.486V20.986C56.2105 20.986 56.6984 21.1857 57.0471 21.5619L57.4139 21.2221ZM55.5505 20.486C54.8652 20.486 54.2858 20.7316 53.8311 21.2221L54.1979 21.5619C54.5539 21.1778 54.9985 20.986 55.5505 20.986V20.486ZM53.8333 21.2198C53.3772 21.6998 53.1186 22.3836 53.0298 23.2382L53.5272 23.2898C53.609 22.5017 53.8411 21.9375 54.1958 21.5642L53.8333 21.2198ZM60.9256 28H60.6756V28.25H60.9256V28ZM60.9256 19.68V19.43H60.6756V19.68H60.9256ZM62.3176 19.68H62.5676V19.43H62.3176V19.68ZM62.3176 21.488H62.0676L62.5502 21.5796L62.3176 21.488ZM62.8776 20.512L63.0742 20.6665L63.0768 20.6631L62.8776 20.512ZM63.7576 19.776L63.8721 19.9983L63.8773 19.9955L63.7576 19.776ZM65.4696 19.52L65.4366 19.7678L65.4448 19.7689L65.453 19.7694L65.4696 19.52ZM65.8696 19.584L66.1097 19.6537L66.1788 19.4157L65.9415 19.3445L65.8696 19.584ZM65.4376 21.072L65.3406 21.3024L65.5994 21.4114L65.6777 21.1417L65.4376 21.072ZM63.5816 21.28L63.4502 21.0673L63.4474 21.0691L63.5816 21.28ZM62.7016 22.32L62.478 22.2082L62.476 22.2123L62.7016 22.32ZM62.3656 28V28.25H62.6156V28H62.3656ZM61.1756 28V19.68H60.6756V28H61.1756ZM60.9256 19.93H62.3176V19.43H60.9256V19.93ZM62.0676 19.68V21.488H62.5676V19.68H62.0676ZM62.5502 21.5796C62.68 21.2503 62.8545 20.9461 63.0742 20.6665L62.681 20.3575C62.4314 20.6752 62.2326 21.0217 62.085 21.3964L62.5502 21.5796ZM63.0768 20.6631C63.2884 20.3841 63.5526 20.1628 63.8721 19.9982L63.6431 19.5538C63.2586 19.7518 62.9361 20.0212 62.6785 20.3609L63.0768 20.6631ZM63.8773 19.9955C64.1868 19.8267 64.555 19.738 64.9896 19.738V19.238C64.4856 19.238 64.0324 19.3413 63.6379 19.5565L63.8773 19.9955ZM64.9896 19.738C65.1385 19.738 65.2874 19.7479 65.4366 19.7678L65.5027 19.2722C65.3318 19.2494 65.1608 19.238 64.9896 19.238V19.738ZM65.453 19.7694C65.6017 19.7794 65.715 19.7986 65.7978 19.8235L65.9415 19.3445C65.8109 19.3054 65.6575 19.282 65.4863 19.2706L65.453 19.7694ZM65.6295 19.5143L65.1975 21.0023L65.6777 21.1417L66.1097 19.6537L65.6295 19.5143ZM65.5346 20.8416C65.2944 20.7404 65.0199 20.694 64.7176 20.694V21.194C64.97 21.194 65.1755 21.2329 65.3406 21.3024L65.5346 20.8416ZM64.7176 20.694C64.2728 20.694 63.8491 20.8209 63.4503 21.0673L63.713 21.4927C64.0395 21.2911 64.3731 21.194 64.7176 21.194V20.694ZM63.4474 21.0691C63.0485 21.3229 62.7278 21.7087 62.478 22.2082L62.9252 22.4318C63.1448 21.9927 63.4108 21.6851 63.7158 21.4909L63.4474 21.0691ZM62.476 22.2123C62.2309 22.7258 62.1156 23.3632 62.1156 24.112H62.6156C62.6156 23.4101 62.7243 22.8528 62.9272 22.4277L62.476 22.2123ZM62.1156 24.112V28H62.6156V24.112H62.1156ZM62.3656 27.75H60.9256V28.25H62.3656V27.75ZM67.1519 27.056L66.9663 27.2235L66.9688 27.2262L67.1519 27.056ZM66.5759 21.616L66.3508 21.5071L66.3501 21.5087L66.5759 21.616ZM67.9039 20.064L68.0417 20.2726L68.0443 20.2708L67.9039 20.064ZM71.8559 20.016L71.7162 20.2234L71.7211 20.2266L71.8559 20.016ZM73.0559 21.408L73.2835 21.3045L73.2835 21.3045L73.0559 21.408ZM73.4079 24.432V24.682H73.6362L73.6569 24.4546L73.4079 24.432ZM67.5839 24.432V24.182H67.3012L67.3358 24.4626L67.5839 24.432ZM71.4719 26.768L71.5325 27.0106L71.5388 27.0089L71.4719 26.768ZM72.5759 26.368L72.8171 26.3022L72.7398 26.0189L72.4724 26.1404L72.5759 26.368ZM72.9119 27.6L73.0134 27.8285L73.2095 27.7413L73.1531 27.5342L72.9119 27.6ZM71.6159 28.016L71.5616 27.7719L71.5565 27.7732L71.6159 28.016ZM67.5679 23.264L67.3192 23.2382L67.2906 23.514H67.5679V23.264ZM72.1279 23.264V23.514H72.3779V23.264H72.1279ZM71.5199 21.392L71.3365 21.5619L71.3365 21.5619L71.5199 21.392ZM68.3039 21.392L68.4851 21.5642L68.4872 21.5619L68.3039 21.392ZM69.9999 27.942C68.8629 27.942 67.9842 27.5842 67.335 26.8858L66.9688 27.2262C67.7276 28.0425 68.7476 28.442 69.9999 28.442V27.942ZM67.3374 26.8885C66.6977 26.1798 66.3619 25.1749 66.3619 23.84H65.8619C65.8619 25.2571 66.2194 26.3962 66.9663 27.2235L67.3374 26.8885ZM66.3619 23.84C66.3619 23.0394 66.5106 22.3356 66.8017 21.7233L66.3501 21.5087C66.0225 22.1977 65.8619 22.9766 65.8619 23.84H66.3619ZM66.8009 21.7249C67.103 21.1005 67.517 20.6191 68.0416 20.2726L67.7661 19.8554C67.1601 20.2556 66.6887 20.8088 66.3508 21.5071L66.8009 21.7249ZM68.0443 20.2708C68.5644 19.9176 69.1705 19.738 69.8719 19.738V19.238C69.08 19.238 68.374 19.4424 67.7634 19.8572L68.0443 20.2708ZM69.8719 19.738C70.6355 19.738 71.2447 19.9058 71.7162 20.2234L71.9955 19.8086C71.4217 19.4222 70.7083 19.238 69.8719 19.238V19.738ZM71.7211 20.2266C72.2131 20.5414 72.5812 20.9679 72.8283 21.5115L73.2835 21.3045C72.9972 20.6748 72.5654 20.1733 71.9906 19.8054L71.7211 20.2266ZM72.8283 21.5115C73.0789 22.0627 73.2059 22.6724 73.2059 23.344H73.7059C73.7059 22.6076 73.5662 21.9266 73.2835 21.3045L72.8283 21.5115ZM73.2059 23.344C73.2059 23.7102 73.1902 24.0653 73.1589 24.4094L73.6569 24.4546C73.6896 24.0947 73.7059 23.7245 73.7059 23.344H73.2059ZM73.4079 24.182H67.5839V24.682H73.4079V24.182ZM67.3358 24.4626C67.4369 25.283 67.7272 25.9487 68.2252 26.4349L68.5745 26.0771C68.1765 25.6886 67.9228 25.1383 67.832 24.4014L67.3358 24.4626ZM68.2252 26.4349C68.7281 26.9257 69.3869 27.162 70.1759 27.162V26.662C69.4928 26.662 68.9677 26.4609 68.5745 26.0771L68.2252 26.4349ZM70.1759 27.162C70.6722 27.162 71.125 27.1124 71.5325 27.0105L71.4112 26.5255C71.0507 26.6156 70.6396 26.662 70.1759 26.662V27.162ZM71.5388 27.0089C71.9349 26.8988 72.3152 26.7611 72.6793 26.5956L72.4724 26.1404C72.1326 26.2949 71.7768 26.4238 71.405 26.5271L71.5388 27.0089ZM72.3347 26.4338L72.6707 27.6658L73.1531 27.5342L72.8171 26.3022L72.3347 26.4338ZM72.8103 27.3715C72.4439 27.5344 72.0281 27.6683 71.5616 27.772L71.6701 28.26C72.1637 28.1504 72.6119 28.0069 73.0134 27.8285L72.8103 27.3715ZM71.5565 27.7732C71.0995 27.8849 70.5812 27.942 69.9999 27.942V28.442C70.6132 28.442 71.1723 28.3818 71.6752 28.2588L71.5565 27.7732ZM67.5679 23.514H72.1279V23.014H67.5679V23.514ZM72.3779 23.264C72.3779 22.4133 72.1648 21.7201 71.7032 21.2221L71.3365 21.5619C71.6856 21.9386 71.8779 22.4934 71.8779 23.264H72.3779ZM71.7032 21.2221C71.2413 20.7236 70.6092 20.486 69.8399 20.486V20.986C70.4999 20.986 70.9878 21.1857 71.3365 21.5619L71.7032 21.2221ZM69.8399 20.486C69.1546 20.486 68.5751 20.7316 68.1205 21.2221L68.4872 21.5619C68.8433 21.1778 69.2879 20.986 69.8399 20.986V20.486ZM68.1226 21.2198C67.6666 21.6998 67.408 22.3836 67.3192 23.2382L67.8165 23.2898C67.8984 22.5017 68.1305 21.9375 68.4851 21.5642L68.1226 21.2198ZM75.839 24.688L75.5893 24.6999L75.6006 24.938H75.839V24.688ZM75.631 20.32H75.3807L75.3813 20.3319L75.631 20.32ZM75.631 16.336V16.086H75.381V16.336H75.631ZM77.231 16.336H77.481V16.086H77.231V16.336ZM77.231 20.32L77.481 20.3319V20.32H77.231ZM77.023 24.688V24.938H77.2614L77.2727 24.6999L77.023 24.688ZM75.663 26.336L75.8398 26.5128L75.8398 26.5128L75.663 26.336ZM77.183 26.368L77.0062 26.5448L77.0106 26.549L77.183 26.368ZM77.215 27.904L77.387 28.0856L77.3918 28.0808L77.215 27.904ZM76.0887 24.6761L75.8807 20.3081L75.3813 20.3319L75.5893 24.6999L76.0887 24.6761ZM75.881 20.32V16.336H75.381V20.32H75.881ZM75.631 16.586H77.231V16.086H75.631V16.586ZM76.981 16.336V20.32H77.481V16.336H76.981ZM76.9813 20.3081L76.7733 24.6761L77.2727 24.6999L77.4807 20.3319L76.9813 20.3081ZM77.023 24.438H75.839V24.938H77.023V24.438ZM76.447 27.942C76.2287 27.942 76.0407 27.8642 75.8718 27.6952L75.5182 28.0488C75.776 28.3065 76.0893 28.442 76.447 28.442V27.942ZM75.8718 27.6952C75.7028 27.5263 75.625 27.3383 75.625 27.12H75.125C75.125 27.4777 75.2605 27.791 75.5182 28.0488L75.8718 27.6952ZM75.625 27.12C75.625 26.8403 75.7045 26.648 75.8398 26.5128L75.4862 26.1592C75.2375 26.408 75.125 26.7384 75.125 27.12H75.625ZM75.8398 26.5128C75.975 26.3775 76.1673 26.298 76.447 26.298V25.798C76.0654 25.798 75.735 25.9105 75.4862 26.1592L75.8398 26.5128ZM76.447 26.298C76.6519 26.298 76.8352 26.3738 77.0062 26.5448L77.3598 26.1912C77.1041 25.9355 76.7968 25.798 76.447 25.798V26.298ZM77.0106 26.549C77.1891 26.7191 77.269 26.9059 77.269 27.12H77.769C77.769 26.7581 77.6249 26.4436 77.3554 26.187L77.0106 26.549ZM77.269 27.12C77.269 27.3821 77.1883 27.5771 77.0382 27.7272L77.3918 28.0808C77.647 27.8256 77.769 27.4979 77.769 27.12H77.269ZM77.0431 27.7225C76.892 27.8656 76.6999 27.942 76.447 27.942V28.442C76.8128 28.442 77.1326 28.3264 77.3869 28.0855L77.0431 27.7225Z" fill="#1C74E9"/>
<defs>
<clipPath id="clip0_1114_126">
<rect width="45" height="45" fill="white" transform="translate(89)"/>
</clipPath>
</defs>
</svg>
