<svg width="60" height="60" viewBox="0 0 60 60" fill="none" xmlns="http://www.w3.org/2000/svg">
<circle cx="30" cy="30" r="30" fill="url(#paint0_linear_716_253)"/>
<g clip-path="url(#clip0_716_253)">
<path d="M34.785 20.4733L36.02 18.4633C36.308 17.9913 36.924 17.8453 37.395 18.1353C37.866 18.4243 38.013 19.0393 37.723 19.5103L36.488 21.5203C36.3 21.8283 35.971 21.9973 35.635 21.9973C35.456 21.9973 35.276 21.9493 35.113 21.8493C34.642 21.5603 34.495 20.9443 34.785 20.4733ZM23.427 21.5193C23.615 21.8273 23.945 21.9973 24.281 21.9973C24.459 21.9973 24.639 21.9493 24.802 21.8503C25.273 21.5613 25.421 20.9463 25.132 20.4753L23.899 18.4643C23.61 17.9933 22.994 17.8463 22.524 18.1343C22.053 18.4233 21.905 19.0383 22.194 19.5093L23.427 21.5193ZM21.241 23.7273L19.443 22.8663C18.947 22.6253 18.346 22.8373 18.11 23.3363C17.871 23.8343 18.082 24.4313 18.58 24.6693L20.378 25.5303C20.517 25.5973 20.664 25.6293 20.809 25.6293C21.182 25.6293 21.54 25.4203 21.711 25.0613C21.95 24.5633 21.739 23.9653 21.241 23.7273ZM29.864 22.0003C24.35 22.0913 19.98 28.0673 22.974 33.8233C23.429 34.6973 24.104 35.4293 24.829 36.0963C25.104 36.3493 25.317 36.6623 25.499 36.9983H29V31.8143C27.839 31.4003 27 30.3003 27 28.9983C27 28.4453 27.447 27.9983 28 27.9983C28.553 27.9983 29 28.4453 29 28.9983C29 29.5513 29.448 29.9983 30 29.9983C30.552 29.9983 31 29.5503 31 28.9983C31 28.4463 31.447 27.9983 32 27.9983C32.553 27.9983 33 28.4453 33 28.9983C33 30.3003 32.161 31.4003 31 31.8143V36.9983H34.468C34.696 36.6073 34.99 36.2383 35.375 35.9173C36.034 35.3673 36.654 34.7543 37.035 33.9853C38.772 30.4723 38.083 26.7263 35.609 24.2943C34.068 22.7783 32.027 21.9673 29.864 22.0003ZM25.992 39.2773C25.912 40.7433 27.01 41.9993 28.478 41.9993H31.499C32.88 41.9993 33.999 40.8803 33.999 39.4993V38.9993H25.981C25.981 39.0933 25.998 39.1813 25.992 39.2773ZM41.913 23.2993C41.685 22.7963 41.094 22.5693 40.591 22.7993L38.659 23.6713C38.155 23.8983 37.931 24.4903 38.159 24.9933C38.326 25.3633 38.689 25.5823 39.071 25.5823C39.208 25.5823 39.348 25.5543 39.481 25.4933L41.413 24.6213C41.917 24.3943 42.141 23.8023 41.913 23.2993Z" fill="#1C74E9"/>
</g>
<defs>
<linearGradient id="paint0_linear_716_253" x1="30" y1="0" x2="30" y2="60" gradientUnits="userSpaceOnUse">
<stop stop-color="#CEDEF4"/>
<stop offset="1" stop-color="#EEF1F4"/>
</linearGradient>
<clipPath id="clip0_716_253">
<rect width="24" height="24" fill="white" transform="translate(18 18)"/>
</clipPath>
</defs>
</svg>
