<svg width="60" height="60" viewBox="0 0 60 60" fill="none" xmlns="http://www.w3.org/2000/svg">
<circle cx="30" cy="30" r="30" fill="url(#paint0_linear_716_257)"/>
<g clip-path="url(#clip0_716_257)">
<path d="M32.126 31.1162L34.26 28.9832C34.918 28.3252 36.066 28.8622 35.946 29.7852C35.778 31.0782 35.193 32.3102 34.243 33.2432C33.11 34.3762 31.603 35.0002 30 35.0002C28.397 35.0002 26.891 34.3762 25.757 33.2432C24.623 32.1102 24 30.6032 24 29.0002C24 27.3972 24.624 25.8912 25.757 24.7572C26.69 23.8072 27.922 23.2222 29.215 23.0542C30.137 22.9342 30.674 24.0822 30.017 24.7402L27.884 26.8742C27.884 26.8742 27.88 26.8772 27.879 26.8782C26.71 28.0482 26.71 29.9512 27.879 31.1212C29.049 32.2912 30.952 32.2912 32.122 31.1212C32.124 31.1192 32.125 31.1172 32.126 31.1162ZM37.262 37.1562C39.495 35.1412 40.911 32.2372 40.911 29.0002C40.911 28.2742 40.837 27.5652 40.699 26.8792C40.567 26.2242 39.775 25.9652 39.302 26.4372L38.286 27.4522C38.024 27.7142 37.869 28.0752 37.899 28.4442C37.914 28.6272 37.923 28.8122 37.923 28.9992C37.923 33.4172 34.341 36.9992 29.923 36.9992C25.476 37.0052 21.968 33.3842 21.91 28.9992C21.958 24.5742 25.529 20.9492 29.993 21.0032C30.335 21.0152 31.079 21.0022 31.598 20.4832C32.117 19.9642 32.473 19.6082 32.473 19.6082C32.929 19.1522 32.713 18.3522 32.081 18.2222C30.215 17.8382 28.181 17.9252 26.073 18.6942C21.725 20.2822 18.909 24.3732 18.91 29.0032C18.91 32.2382 20.223 35.0992 22.666 37.2712L20.654 40.4672C20.36 40.9342 20.5 41.5512 20.967 41.8462C21.427 42.1382 22.05 42.0042 22.346 41.5332L24.295 38.4372C25.942 39.4212 27.856 40.0002 29.91 40.0002C32.024 40.0072 33.969 39.3802 35.662 38.3692L37.654 41.5332C37.95 42.0042 38.573 42.1382 39.033 41.8462C39.5 41.5522 39.641 40.9342 39.346 40.4672L37.262 37.1562ZM39.924 22.6172C39.769 22.2432 39.404 22.0002 39 22.0002H37V20.0002C37 19.5962 36.756 19.2312 36.383 19.0762C36.008 18.9212 35.579 19.0062 35.293 19.2932L33.293 21.2932C33.105 21.4812 33 21.7352 33 22.0002V24.5862L29.293 28.2932C29.112 28.4742 29 28.7242 29 29.0002C29 29.5522 29.448 30.0002 30 30.0002C30.276 30.0002 30.526 29.8882 30.707 29.7072L34.414 26.0002H37C37.265 26.0002 37.52 25.8952 37.707 25.7072L39.707 23.7072C39.993 23.4212 40.079 22.9912 39.924 22.6172Z" fill="#1C74E9"/>
</g>
<defs>
<linearGradient id="paint0_linear_716_257" x1="30" y1="0" x2="30" y2="60" gradientUnits="userSpaceOnUse">
<stop stop-color="#CEDEF4"/>
<stop offset="1" stop-color="#EEF1F4"/>
</linearGradient>
<clipPath id="clip0_716_257">
<rect width="24" height="24" fill="white" transform="translate(18 18)"/>
</clipPath>
</defs>
</svg>
