<svg width="36" height="36" viewBox="0 0 36 36" fill="none" xmlns="http://www.w3.org/2000/svg">
<g clip-path="url(#clip0_1016_13)">
<path d="M11 19.9635L6.0965 15.06C5.26817 14.2317 4.8785 13.1432 4.75133 12.0652C4.27067 11.5845 4 10.9312 4 10.251V5.89002C4 4.81085 4.91 3.94402 6.0055 4.01635C6.47217 4.04668 6.90617 4.26368 7.2375 4.59385L8.99567 6.34618H16.5732C17.3315 6.34618 17.9965 6.96568 18 7.72285C18.0023 8.10202 17.8483 8.44618 17.5998 8.69468C17.3525 8.94202 17.0118 9.09485 16.635 9.09485H14.9795L18.1202 12.2355C17.1682 12.3638 16.3282 12.8527 15.7775 13.5877C15.2385 13.3765 14.6353 13.2937 14.0042 13.38C12.2658 13.6203 10.9988 15.1569 10.9988 16.9115L11 19.9635ZM29.6737 4.00468L28.0497 4.00002C27.4278 3.99768 26.8317 4.24385 26.3918 4.68368L25.1785 5.89702C24.1005 6.02302 23.012 6.41385 22.1837 7.24218C22.1837 7.24218 19.5493 10.02 19.3848 10.2008L25.2252 16.0412C26.0255 16.8438 26.0243 18.2508 26.0243 18.2508L28.1488 16.1263V17.7818C28.1488 18.1587 28.3017 18.4993 28.5478 18.7467C28.794 18.994 29.1358 19.1468 29.5127 19.1468C30.2663 19.1468 30.8777 18.5355 30.8777 17.7818L30.8333 10.1413L31.1448 9.82985C31.692 9.28268 31.9988 8.54068 31.9988 7.76718V6.33802C32 5.05235 30.9593 4.00935 29.6737 4.00468ZM22.6667 16.845C22.0227 16.845 21.5 17.3677 21.5 18.0117V21.8033C21.5 22.2863 21.108 22.6783 20.625 22.6783C20.142 22.6783 19.75 22.2863 19.75 21.8033V15.6783C19.75 15.0343 19.2273 14.5117 18.5833 14.5117C17.9393 14.5117 17.4167 15.0343 17.4167 15.6783V21.8033C17.4167 22.2863 17.0247 22.6783 16.5417 22.6783C16.0587 22.6783 15.6667 22.2863 15.6667 21.8033V16.845C15.6667 16.201 15.144 15.6783 14.5 15.6783C13.856 15.6783 13.3333 16.201 13.3333 16.845V25.4153L12.1632 24.2452C11.8972 23.9792 11.5472 23.845 11.1983 23.845C10.8495 23.845 10.4995 23.978 10.2335 24.2452C9.70033 24.7783 9.70033 25.6417 10.2335 26.1748L14.8617 30.6863C15.7332 31.5357 16.9022 32.0117 18.119 32.0117H21.5C22.144 32.0117 22.6667 31.489 22.6667 30.845V30.4017C23.3842 29.5815 23.8333 28.5198 23.8333 27.345V18.0128C23.8333 17.3688 23.3107 16.845 22.6667 16.845Z" fill="#1C74E9"/>
</g>
<defs>
<clipPath id="clip0_1016_13">
<rect width="28" height="28" fill="white" transform="translate(4 4)"/>
</clipPath>
</defs>
</svg>
