<svg width="28" height="28" viewBox="0 0 28 28" fill="none" xmlns="http://www.w3.org/2000/svg">
<path fill-rule="evenodd" clip-rule="evenodd" d="M16.5736 1.98401C15.0976 0.671996 12.8734 0.671996 11.3974 1.98401L1.43586 10.8387C0.899833 11.3152 0.851553 12.136 1.32802 12.672C1.80448 13.2079 2.62525 13.2562 3.16127 12.7798L3.59711 12.3924V19.686C3.59705 20.8372 3.597 21.829 3.70378 22.6233C3.81822 23.4745 4.07631 24.2905 4.73812 24.9523C5.39994 25.6141 6.21589 25.8721 7.06711 25.9867C7.86138 26.0934 8.85323 26.0933 10.0044 26.0933H17.9666C19.1178 26.0933 20.1096 26.0934 20.9039 25.9867C21.7551 25.8721 22.5711 25.6141 23.2329 24.9523C23.8947 24.2905 24.1527 23.4745 24.2673 22.6233C24.374 21.829 24.374 20.8372 24.3739 19.6861V12.3924L24.8097 12.7798C25.3457 13.2562 26.1665 13.2079 26.643 12.672C27.1194 12.136 27.0712 11.3152 26.5352 10.8387L16.5736 1.98401ZM13.9855 18.302C13.2683 18.302 12.6869 18.8834 12.6869 19.6005V22.1976C12.6869 22.9148 12.1056 23.4962 11.3884 23.4962C10.6712 23.4962 10.0898 22.9148 10.0898 22.1976V19.6005C10.0898 17.449 11.8339 15.7049 13.9855 15.7049C16.1371 15.7049 17.8811 17.449 17.8811 19.6005V22.1976C17.8811 22.9148 17.2998 23.4962 16.5826 23.4962C15.8654 23.4962 15.284 22.9148 15.284 22.1976V19.6005C15.284 18.8834 14.7027 18.302 13.9855 18.302Z" fill="black"/>
</svg>
